<?xml version="1.0" encoding="UTF-8" standalone="no"?>
<!DOCTYPE svg PUBLIC "-//W3C//DTD SVG 1.0//EN" "http://www.w3.org/TR/2001/PR-SVG-20010719/DTD/svg10.dtd">
<svg width="55cm" height="20cm" viewBox="110 32 1087 388" xmlns="http://www.w3.org/2000/svg" xmlns:xlink="http://www.w3.org/1999/xlink">
  <g>
    <rect style="fill: #ffffff" x="189.35" y="56" width="118.3" height="38"/>
    <rect style="fill: none; fill-opacity:0; stroke-width: 2; stroke: #000000" x="189.35" y="56" width="118.3" height="38"/>
    <text font-size="12.8" style="fill: #000000;text-anchor:middle;font-family:sans-serif;font-style:normal;font-weight:normal" x="248.5" y="78.9">
      <tspan x="248.5" y="78.9">Key_value.Trait</tspan>
    </text>
  </g>
  <line style="fill: none; fill-opacity:0; stroke-width: 2; stroke: #000000" x1="242.113" y1="94.9983" x2="214.551" y2="181.303"/>
  <g>
    <rect style="fill: #ffffff" x="149.066" y="182.3" width="111.269" height="59.7"/>
    <rect style="fill: none; fill-opacity:0; stroke-width: 2; stroke: #000000" x="149.066" y="182.3" width="111.269" height="59.7"/>
    <text font-size="12.8" style="fill: #000000;text-anchor:middle;font-family:sans-serif;font-style:normal;font-weight:normal" x="204.7" y="216.05">
      <tspan x="204.7" y="216.05">Common.Trait</tspan>
    </text>
  </g>
  <g>
    <rect style="fill: #ffffff" x="111.981" y="327" width="87.0188" height="41.3"/>
    <rect style="fill: none; fill-opacity:0; stroke-width: 2; stroke: #000000" x="111.981" y="327" width="87.0188" height="41.3"/>
    <text font-size="12.8" style="fill: #000000;text-anchor:middle;font-family:sans-serif;font-style:normal;font-weight:normal" x="155.491" y="351.55">
      <tspan x="155.491" y="351.55">Find.Trait</tspan>
    </text>
  </g>
  <g>
    <rect style="fill: #ffffff" x="521.4" y="33.3" width="111.269" height="59.7"/>
    <rect style="fill: none; fill-opacity:0; stroke-width: 2; stroke: #000000" x="521.4" y="33.3" width="111.269" height="59.7"/>
    <text font-size="12.8" style="fill: #000000;text-anchor:middle;font-family:sans-serif;font-style:normal;font-weight:normal" x="577.034" y="67.05">
      <tspan x="577.034" y="67.05">Tree.Trait</tspan>
    </text>
  </g>
  <g>
    <rect style="fill: #ffffff" x="549.4" y="142.3" width="120.656" height="51.7"/>
    <rect style="fill: none; fill-opacity:0; stroke-width: 2; stroke: #000000" x="549.4" y="142.3" width="120.656" height="51.7"/>
    <text font-size="12.8" style="fill: #000000;text-anchor:middle;font-family:sans-serif;font-style:normal;font-weight:normal" x="609.728" y="172.05">
      <tspan x="609.728" y="172.05">Tree_stack.Trait</tspan>
    </text>
  </g>
  <g>
    <rect style="fill: #ffffff" x="530.85" y="298.3" width="163.756" height="51.7"/>
    <rect style="fill: none; fill-opacity:0; stroke-width: 2; stroke: #000000" x="530.85" y="298.3" width="163.756" height="51.7"/>
    <text font-size="12.8" style="fill: #000000;text-anchor:middle;font-family:sans-serif;font-style:normal;font-weight:normal" x="612.728" y="328.05">
      <tspan x="612.728" y="328.05">Insert_tree_stack.Trait</tspan>
    </text>
  </g>
  <g>
    <rect style="fill: #ffffff" x="263.4" y="367.3" width="163.756" height="51.7"/>
    <rect style="fill: none; fill-opacity:0; stroke-width: 2; stroke: #000000" x="263.4" y="367.3" width="163.756" height="51.7"/>
    <text font-size="12.8" style="fill: #000000;text-anchor:middle;font-family:sans-serif;font-style:normal;font-weight:normal" x="345.278" y="397.05">
      <tspan x="345.278" y="397.05">Insert.Trait</tspan>
    </text>
  </g>
  <g>
    <rect style="fill: #ffffff" x="353.4" y="115.3" width="142.6" height="43.7"/>
    <rect style="fill: none; fill-opacity:0; stroke-width: 2; stroke: #000000" x="353.4" y="115.3" width="142.6" height="43.7"/>
    <text font-size="12.8" style="fill: #000000;text-anchor:middle;font-family:sans-serif;font-style:normal;font-weight:normal" x="424.7" y="141.05">
      <tspan x="424.7" y="141.05">Tree_kv.Trait</tspan>
    </text>
  </g>
  <line style="fill: none; fill-opacity:0; stroke-width: 2; stroke: #000000" x1="163.354" y1="325.998" x2="193.497" y2="242.998"/>
  <line style="fill: none; fill-opacity:0; stroke-width: 2; stroke: #000000" x1="353.609" y1="366.298" x2="417.61" y2="160.002"/>
  <line style="fill: none; fill-opacity:0; stroke-width: 2; stroke: #000000" x1="471.728" y1="114.305" x2="520.409" y2="90.6571"/>
  <line style="fill: none; fill-opacity:0; stroke-width: 2; stroke: #000000" x1="261.325" y1="192.846" x2="358.528" y2="159.709"/>
  <line style="fill: none; fill-opacity:0; stroke-width: 2; stroke-dasharray: 20; stroke: #000000" x1="428.154" y1="371.769" x2="529.852" y2="345.531"/>
  <line style="fill: none; fill-opacity:0; stroke-width: 2; stroke: #000000" x1="324.96" y1="366.99" x2="228.664" y2="243.005"/>
  <line style="fill: none; fill-opacity:0; stroke-width: 2; stroke: #000000" x1="585.724" y1="297.294" x2="447.681" y2="160.006"/>
  <line style="fill: none; fill-opacity:0; stroke-width: 2; stroke: #000000" x1="585.724" y1="297.294" x2="447.681" y2="160.006"/>
  <line style="fill: none; fill-opacity:0; stroke-width: 2; stroke: #000000" x1="612.212" y1="297.318" x2="610.244" y2="194.982"/>
  <line style="fill: none; fill-opacity:0; stroke-width: 2; stroke: #000000" x1="601.395" y1="141.387" x2="586.598" y2="93.8643"/>
  <line style="fill: none; fill-opacity:0; stroke-width: 2; stroke: #000000" x1="359.959" y1="114.314" x2="305.154" y2="94.9834"/>
  <g>
    <rect style="fill: #ffffff" x="940.5" y="39.95" width="111.269" height="59.7"/>
    <rect style="fill: none; fill-opacity:0; stroke-width: 2; stroke: #000000" x="940.5" y="39.95" width="111.269" height="59.7"/>
    <text font-size="12.8" style="fill: #000000;text-anchor:middle;font-family:sans-serif;font-style:normal;font-weight:normal" x="996.134" y="73.7">
      <tspan x="996.134" y="73.7">Constants</tspan>
    </text>
  </g>
  <g>
    <rect style="fill: #ffffff" x="1078.5" y="45.95" width="118.3" height="38"/>
    <rect style="fill: none; fill-opacity:0; stroke-width: 2; stroke: #000000" x="1078.5" y="45.95" width="118.3" height="38"/>
    <text font-size="12.8" style="fill: #000000;text-anchor:middle;font-family:sans-serif;font-style:normal;font-weight:normal" x="1137.65" y="68.85">
      <tspan x="1137.65" y="68.85">Key_value</tspan>
    </text>
  </g>
  <g>
    <rect style="fill: #ffffff" x="784.5" y="49.95" width="118.3" height="38"/>
    <rect style="fill: none; fill-opacity:0; stroke-width: 2; stroke: #000000" x="784.5" y="49.95" width="118.3" height="38"/>
    <text font-size="12.8" style="fill: #000000;text-anchor:middle;font-family:sans-serif;font-style:normal;font-weight:normal" x="843.65" y="72.85">
      <tspan x="843.65" y="72.85">Util</tspan>
    </text>
  </g>
  <g>
    <rect style="fill: #ffffff" x="932.5" y="173.95" width="118.3" height="38"/>
    <rect style="fill: none; fill-opacity:0; stroke-width: 2; stroke: #000000" x="932.5" y="173.95" width="118.3" height="38"/>
    <text font-size="12.8" style="fill: #000000;text-anchor:middle;font-family:sans-serif;font-style:normal;font-weight:normal" x="991.65" y="196.85">
      <tspan x="991.65" y="196.85">Tree</tspan>
    </text>
  </g>
  <line style="fill: none; fill-opacity:0; stroke-width: 2; stroke: #000000" x1="967.784" y1="172.954" x2="867.516" y2="88.9456"/>
  <line style="fill: none; fill-opacity:0; stroke-width: 2; stroke: #000000" x1="992.378" y1="172.949" x2="995.011" y2="100.655"/>
  <line style="fill: none; fill-opacity:0; stroke-width: 2; stroke: #000000" x1="1014.47" y1="172.942" x2="1114.83" y2="84.9578"/>
  <g>
    <rect style="fill: #ffffff" x="931.5" y="247.95" width="118.3" height="38"/>
    <rect style="fill: none; fill-opacity:0; stroke-width: 2; stroke: #000000" x="931.5" y="247.95" width="118.3" height="38"/>
    <text font-size="12.8" style="fill: #000000;text-anchor:middle;font-family:sans-serif;font-style:normal;font-weight:normal" x="990.65" y="270.85">
      <tspan x="990.65" y="270.85">Tree_stack</tspan>
    </text>
  </g>
  <g>
    <rect style="fill: #ffffff" x="926.05" y="329.95" width="131.2" height="38"/>
    <rect style="fill: none; fill-opacity:0; stroke-width: 2; stroke: #000000" x="926.05" y="329.95" width="131.2" height="38"/>
    <text font-size="12.8" style="fill: #000000;text-anchor:middle;font-family:sans-serif;font-style:normal;font-weight:normal" x="991.65" y="352.85">
      <tspan x="991.65" y="352.85">Insert_tree_stack</tspan>
    </text>
  </g>
  <line style="fill: none; fill-opacity:0; stroke-width: 2; stroke: #000000" x1="991.014" y1="246.956" x2="991.65" y2="211.95"/>
  <line style="fill: none; fill-opacity:0; stroke-width: 2; stroke: #000000" x1="990.893" y1="286.889" x2="991.407" y2="329.011"/>
</svg>
