<svg font-family="arial" font-size="14" height="320" width="368" xmlns="http://www.w3.org/2000/svg">
<defs>
<marker id="triangle" markerHeight="10" markerUnits="strokeWidth" markerWidth="10" orient="auto" refX="15" refY="10" viewBox="0 0 50 20">
<path d="M 0 0 L 30 10 L 0 20 z"/>
</marker>
</defs>
<style>

    line, path {
      stroke: black;
      stroke-width: 2;
      stroke-opacity: 1;
      fill-opacity: 1;
      stroke-linecap: round;
      stroke-linejoin: miter;
    }
    circle {
      stroke: black;
      stroke-width: 2;
      stroke-opacity: 1;
      fill-opacity: 1;
      stroke-linecap: round;
      stroke-linejoin: miter;
      fill:white;
    }
    circle.solid {
      fill:black;
    }
    circle.open {
      fill:white;
    }
    tspan.head{
        fill: none;
        stroke: none;
    }
    
</style>
<path d=" M 172 12 L 172 32 M 176 8 A 4 4 0 0 0 172 12 M 176 8 L 328 8 M 332 12 L 332 32 M 332 12 A 4 4 0 0 0 328 8 M 172 16 L 172 32 M 332 16 L 332 32 M 172 32 L 172 36 A 4 4 0 0 0 176 40 L 328 40 M 332 32 L 332 36 M 328 40 A 4 4 0 0 0 332 36 M 140 124 L 140 144 M 144 120 A 4 4 0 0 0 140 124 M 144 120 L 304 120 M 308 124 L 308 144 M 308 124 A 4 4 0 0 0 304 120 M 140 128 L 140 144 M 308 128 L 308 144 M 148 144 L 148 192 M 160 152 L 148 152 M 160 152 L 172 152 M 184 152 L 172 152 M 184 152 L 304 152 M 308 144 L 308 148 M 304 152 A 4 4 0 0 0 308 148 M 108 200 L 144 200 M 112 200 L 144 200 M 148 200 L 148 192 M 148 200 L 144 200 M 76 248 L 76 272 M 76 248 L 152 248 M 80 248 L 152 248 M 156 248 L 156 272 M 156 248 L 152 248 M 172 248 L 172 272 M 172 248 L 256 248 M 176 248 L 256 248 M 260 248 L 260 272 M 260 248 L 256 248 M 76 256 L 76 272 M 156 256 L 156 272 M 172 256 L 172 272 M 260 256 L 260 272 M 76 280 L 76 272 M 76 280 L 152 280 M 80 280 L 152 280 M 156 280 L 156 272 M 156 280 L 152 280 M 172 280 L 172 272 M 172 280 L 256 280 M 176 280 L 256 280 M 260 280 L 260 272 M 260 280 L 256 280" fill="none"/>
<path d="" fill="none" stroke-dasharray="3 3"/>
<line marker-end="url(#triangle)" x1="172" x2="172" y1="144" y2="208"/>
<line marker-end="url(#triangle)" x1="108" x2="108" y1="200" y2="240"/>
<line marker-end="url(#triangle)" x1="108" x2="108" y1="208" y2="240"/>
<text x="186" y="28">
This is some text
</text>
<text x="154" y="140">
.
</text>
<text x="170" y="140">
6
</text>
<text x="186" y="140">
.
</text>
<text x="202" y="140">
10
</text>
<text x="226" y="140">
.
</text>
<text x="242" y="140">
14
</text>
<text x="266" y="140">
.
</text>
<text x="282" y="140">
18
</text>
<text x="138" y="156">
+
</text>
<text x="90" y="268">
1 2 3 4
</text>
<text x="194" y="268">
6 7 8 9
</text>
</svg>
