<?xml version="1.0" encoding="UTF-8" standalone="no"?>
<!DOCTYPE svg PUBLIC "-//W3C//DTD SVG 1.1//EN"
 "http://www.w3.org/Graphics/SVG/1.1/DTD/svg11.dtd">
<!-- Generated by graphviz version 2.36.0 (20140111.2315)
 -->
<!-- Title: g Pages: 1 -->
<svg width="293pt" height="120pt"
 viewBox="0.00 0.00 293.00 120.00" xmlns="http://www.w3.org/2000/svg" xmlns:xlink="http://www.w3.org/1999/xlink">
<g id="graph0" class="graph" transform="scale(1 1) rotate(0) translate(4 116)">
<title>g</title>
<polygon fill="white" stroke="none" points="-4,4 -4,-116 289,-116 289,4 -4,4"/>
<!-- z -->
<g id="node1" class="node"><title>z</title>
<polygon fill="none" stroke="black" points="64.5,-75 64.5,-111 213.5,-111 213.5,-75 64.5,-75"/>
<text text-anchor="middle" x="74.5" y="-89.2" font-family="Times,serif" font-size="16.00"> </text>
<polyline fill="none" stroke="black" points="84.5,-75 84.5,-111 "/>
<text text-anchor="middle" x="98.5" y="-89.2" font-family="Times,serif" font-size="16.00">...</text>
<polyline fill="none" stroke="black" points="112.5,-75 112.5,-111 "/>
<text text-anchor="middle" x="122.5" y="-89.2" font-family="Times,serif" font-size="16.00"> </text>
<polyline fill="none" stroke="black" points="132.5,-75 132.5,-111 "/>
<text text-anchor="middle" x="149" y="-89.2" font-family="Times,serif" font-size="16.00">10</text>
<polyline fill="none" stroke="black" points="165.5,-75 165.5,-111 "/>
<text text-anchor="middle" x="175.5" y="-89.2" font-family="Times,serif" font-size="16.00"> </text>
<polyline fill="none" stroke="black" points="185.5,-75 185.5,-111 "/>
<text text-anchor="middle" x="199.5" y="-89.2" font-family="Times,serif" font-size="16.00">...</text>
</g>
<!-- a -->
<g id="node2" class="node"><title>a</title>
<polygon fill="none" stroke="black" points="0,-1 0,-37 54,-37 54,-1 0,-1"/>
<text text-anchor="middle" x="27" y="-15.2" font-family="Times,serif" font-size="16.00">...</text>
</g>
<!-- z&#45;&gt;a -->
<g id="edge1" class="edge"><title>z:a&#45;&gt;a:n</title>
<path fill="none" stroke="black" d="M74,-74C74,-51.7989 40.54,-60.1654 30.0838,-47.5167"/>
<polygon fill="black" stroke="black" points="33.4122,-46.4341 27,-38 26.7531,-48.592 33.4122,-46.4341"/>
</g>
<!-- d -->
<g id="node3" class="node"><title>d</title>
<polygon fill="none" stroke="black" points="72,-1 72,-37 172,-37 172,-1 72,-1"/>
<text text-anchor="middle" x="84.5" y="-15.2" font-family="Times,serif" font-size="16.00">5</text>
<polyline fill="none" stroke="black" points="97,-1 97,-37 "/>
<text text-anchor="middle" x="109.5" y="-15.2" font-family="Times,serif" font-size="16.00">6</text>
<polyline fill="none" stroke="black" points="122,-1 122,-37 "/>
<text text-anchor="middle" x="134.5" y="-15.2" font-family="Times,serif" font-size="16.00">7</text>
<polyline fill="none" stroke="black" points="147,-1 147,-37 "/>
<text text-anchor="middle" x="159.5" y="-15.2" font-family="Times,serif" font-size="16.00">8</text>
</g>
<!-- z&#45;&gt;d -->
<g id="edge2" class="edge"><title>z:d&#45;&gt;d:n</title>
<path fill="none" stroke="black" d="M122,-74C122,-62 122,-56.75 122,-48.125"/>
<polygon fill="black" stroke="black" points="125.5,-48 122,-38 118.5,-48 125.5,-48"/>
</g>
<!-- e -->
<g id="node4" class="node"><title>e</title>
<polygon fill="none" stroke="black" points="190,-1 190,-37 244,-37 244,-1 190,-1"/>
<text text-anchor="middle" x="217" y="-15.2" font-family="Times,serif" font-size="16.00">...</text>
</g>
<!-- z&#45;&gt;e -->
<g id="edge3" class="edge"><title>z:e&#45;&gt;e:n</title>
<path fill="none" stroke="black" d="M176,-74C176,-53.9182 204.117,-59.0386 213.783,-47.6201"/>
<polygon fill="black" stroke="black" points="217.148,-48.5938 217,-38 210.509,-46.3737 217.148,-48.5938"/>
</g>
<!-- c -->
<g id="node5" class="node"><title>c</title>
<polygon fill="none" stroke="black" points="231,-75 231,-111 285,-111 285,-75 231,-75"/>
<text text-anchor="middle" x="258" y="-89.2" font-family="Times,serif" font-size="16.00">...</text>
</g>
</g>
</svg>
