<?xml version="1.0" encoding="UTF-8" standalone="no"?>
<!DOCTYPE svg PUBLIC "-//W3C//DTD SVG 1.1//EN"
 "http://www.w3.org/Graphics/SVG/1.1/DTD/svg11.dtd">
<!-- Generated by graphviz version 2.36.0 (20140111.2315)
 -->
<!-- Title: g Pages: 1 -->
<svg width="494pt" height="194pt"
 viewBox="0.00 0.00 494.00 194.00" xmlns="http://www.w3.org/2000/svg" xmlns:xlink="http://www.w3.org/1999/xlink">
<g id="graph0" class="graph" transform="scale(1 1) rotate(0) translate(4 190)">
<title>g</title>
<polygon fill="white" stroke="none" points="-4,4 -4,-190 490,-190 490,4 -4,4"/>
<!-- x -->
<g id="node1" class="node"><title>x</title>
<polygon fill="none" stroke="black" points="216,-149 216,-185 342,-185 342,-149 216,-149"/>
<text text-anchor="middle" x="226" y="-163.2" font-family="Times,serif" font-size="16.00"> </text>
<polyline fill="none" stroke="black" points="236,-149 236,-185 "/>
<text text-anchor="middle" x="252.5" y="-163.2" font-family="Times,serif" font-size="16.00">10</text>
<polyline fill="none" stroke="black" points="269,-149 269,-185 "/>
<text text-anchor="middle" x="279" y="-163.2" font-family="Times,serif" font-size="16.00"> </text>
<polyline fill="none" stroke="black" points="289,-149 289,-185 "/>
<text text-anchor="middle" x="305.5" y="-163.2" font-family="Times,serif" font-size="16.00">20</text>
<polyline fill="none" stroke="black" points="322,-149 322,-185 "/>
<text text-anchor="middle" x="332" y="-163.2" font-family="Times,serif" font-size="16.00"> </text>
</g>
<!-- y -->
<g id="node2" class="node"><title>y</title>
<polygon fill="none" stroke="black" points="58,-75 58,-111 168,-111 168,-75 58,-75"/>
<text text-anchor="middle" x="68" y="-89.2" font-family="Times,serif" font-size="16.00"> </text>
<polyline fill="none" stroke="black" points="78,-75 78,-111 "/>
<text text-anchor="middle" x="90.5" y="-89.2" font-family="Times,serif" font-size="16.00">4</text>
<polyline fill="none" stroke="black" points="103,-75 103,-111 "/>
<text text-anchor="middle" x="113" y="-89.2" font-family="Times,serif" font-size="16.00"> </text>
<polyline fill="none" stroke="black" points="123,-75 123,-111 "/>
<text text-anchor="middle" x="135.5" y="-89.2" font-family="Times,serif" font-size="16.00">6</text>
<polyline fill="none" stroke="black" points="148,-75 148,-111 "/>
<text text-anchor="middle" x="158" y="-89.2" font-family="Times,serif" font-size="16.00"> </text>
</g>
<!-- x&#45;&gt;y -->
<g id="edge1" class="edge"><title>x:y&#45;&gt;y:n</title>
<path fill="none" stroke="black" d="M226,-148C226,-99.4086 129.967,-154.608 114.961,-122.234"/>
<polygon fill="black" stroke="black" points="118.32,-121.162 113,-112 111.445,-122.48 118.32,-121.162"/>
</g>
<!-- z -->
<g id="node3" class="node"><title>z</title>
<polygon fill="none" stroke="black" points="242.5,-75 242.5,-111 315.5,-111 315.5,-75 242.5,-75"/>
<text text-anchor="middle" x="252.5" y="-89.2" font-family="Times,serif" font-size="16.00"> </text>
<polyline fill="none" stroke="black" points="262.5,-75 262.5,-111 "/>
<text text-anchor="middle" x="279" y="-89.2" font-family="Times,serif" font-size="16.00">15</text>
<polyline fill="none" stroke="black" points="295.5,-75 295.5,-111 "/>
<text text-anchor="middle" x="305.5" y="-89.2" font-family="Times,serif" font-size="16.00"> </text>
</g>
<!-- x&#45;&gt;z -->
<g id="edge2" class="edge"><title>x:z&#45;&gt;z:n</title>
<path fill="none" stroke="black" d="M279,-148C279,-136 279,-130.75 279,-122.125"/>
<polygon fill="black" stroke="black" points="282.5,-122 279,-112 275.5,-122 282.5,-122"/>
</g>
<!-- w -->
<g id="node4" class="node"><title>w</title>
<polygon fill="none" stroke="black" points="377.5,-75 377.5,-111 450.5,-111 450.5,-75 377.5,-75"/>
<text text-anchor="middle" x="387.5" y="-89.2" font-family="Times,serif" font-size="16.00"> </text>
<polyline fill="none" stroke="black" points="397.5,-75 397.5,-111 "/>
<text text-anchor="middle" x="414" y="-89.2" font-family="Times,serif" font-size="16.00">30</text>
<polyline fill="none" stroke="black" points="430.5,-75 430.5,-111 "/>
<text text-anchor="middle" x="440.5" y="-89.2" font-family="Times,serif" font-size="16.00"> </text>
</g>
<!-- x&#45;&gt;w -->
<g id="edge3" class="edge"><title>x:w&#45;&gt;w:n</title>
<path fill="none" stroke="black" d="M332,-148C332,-112.24 398.19,-143.805 411.634,-121.721"/>
<polygon fill="black" stroke="black" points="415.036,-122.544 414,-112 408.235,-120.889 415.036,-122.544"/>
</g>
<!-- a -->
<g id="node5" class="node"><title>a</title>
<polygon fill="none" stroke="black" points="0,-1 0,-37 54,-37 54,-1 0,-1"/>
<text text-anchor="middle" x="13.5" y="-15.2" font-family="Times,serif" font-size="16.00">1</text>
<polyline fill="none" stroke="black" points="27,-1 27,-37 "/>
<text text-anchor="middle" x="40.5" y="-15.2" font-family="Times,serif" font-size="16.00">2</text>
</g>
<!-- y&#45;&gt;a -->
<g id="edge4" class="edge"><title>y:a&#45;&gt;a:n</title>
<path fill="none" stroke="black" d="M68,-74C68,-53.9182 39.8826,-59.0386 30.2172,-47.6201"/>
<polygon fill="black" stroke="black" points="33.491,-46.3737 27,-38 26.8523,-48.5938 33.491,-46.3737"/>
</g>
<!-- b -->
<g id="node6" class="node"><title>b</title>
<polygon fill="none" stroke="black" points="72,-1 72,-37 126,-37 126,-1 72,-1"/>
<text text-anchor="middle" x="99" y="-15.2" font-family="Times,serif" font-size="16.00">5</text>
</g>
<!-- y&#45;&gt;b -->
<g id="edge5" class="edge"><title>y:b&#45;&gt;b:n</title>
<path fill="none" stroke="black" d="M113,-74C113,-60.8563 104.793,-56.7995 100.947,-47.9153"/>
<polygon fill="black" stroke="black" points="104.361,-47.1384 99,-38 97.4921,-48.487 104.361,-47.1384"/>
</g>
<!-- c -->
<g id="node7" class="node"><title>c</title>
<polygon fill="none" stroke="black" points="144,-1 144,-37 198,-37 198,-1 144,-1"/>
<text text-anchor="middle" x="157.5" y="-15.2" font-family="Times,serif" font-size="16.00">6</text>
<polyline fill="none" stroke="black" points="171,-1 171,-37 "/>
<text text-anchor="middle" x="184.5" y="-15.2" font-family="Times,serif" font-size="16.00">9</text>
</g>
<!-- y&#45;&gt;c -->
<g id="edge6" class="edge"><title>y:c&#45;&gt;c:n</title>
<path fill="none" stroke="black" d="M158,-74C158,-60.9758 165.62,-56.764 169.192,-47.8707"/>
<polygon fill="black" stroke="black" points="172.641,-48.4669 171,-38 165.756,-47.2059 172.641,-48.4669"/>
</g>
<!-- d -->
<g id="node8" class="node"><title>d</title>
<polygon fill="none" stroke="black" points="216,-1 216,-37 270,-37 270,-1 216,-1"/>
<text text-anchor="middle" x="243" y="-15.2" font-family="Times,serif" font-size="16.00">12</text>
</g>
<!-- z&#45;&gt;d -->
<g id="edge7" class="edge"><title>z:d&#45;&gt;d:n</title>
<path fill="none" stroke="black" d="M252,-74C252,-61.5018 246.831,-56.7434 244.328,-47.9942"/>
<polygon fill="black" stroke="black" points="247.787,-47.4518 243,-38 240.848,-48.3739 247.787,-47.4518"/>
</g>
<!-- e -->
<g id="node9" class="node"><title>e</title>
<polygon fill="none" stroke="black" points="288,-1 288,-37 342,-37 342,-1 288,-1"/>
<text text-anchor="middle" x="315" y="-15.2" font-family="Times,serif" font-size="16.00">19</text>
</g>
<!-- z&#45;&gt;e -->
<g id="edge8" class="edge"><title>z:e&#45;&gt;e:n</title>
<path fill="none" stroke="black" d="M306,-74C306,-61.5018 311.169,-56.7434 313.672,-47.9942"/>
<polygon fill="black" stroke="black" points="317.152,-48.3739 315,-38 310.213,-47.4518 317.152,-48.3739"/>
</g>
<!-- f -->
<g id="node10" class="node"><title>f</title>
<polygon fill="none" stroke="black" points="360,-1 360,-37 414,-37 414,-1 360,-1"/>
<text text-anchor="middle" x="387" y="-15.2" font-family="Times,serif" font-size="16.00">25</text>
</g>
<!-- w&#45;&gt;f -->
<g id="edge9" class="edge"><title>w:f&#45;&gt;f:n</title>
<path fill="none" stroke="black" d="M387,-74C387,-62 387,-56.75 387,-48.125"/>
<polygon fill="black" stroke="black" points="390.5,-48 387,-38 383.5,-48 390.5,-48"/>
</g>
<!-- g -->
<g id="node11" class="node"><title>g</title>
<polygon fill="none" stroke="black" points="432,-1 432,-37 486,-37 486,-1 432,-1"/>
<text text-anchor="middle" x="459" y="-15.2" font-family="Times,serif" font-size="16.00">32</text>
</g>
<!-- w&#45;&gt;g -->
<g id="edge10" class="edge"><title>w:g&#45;&gt;g:n</title>
<path fill="none" stroke="black" d="M441,-74C441,-60.1643 451.768,-56.8963 456.647,-47.8491"/>
<polygon fill="black" stroke="black" points="460.08,-48.5396 459,-38 453.272,-46.9129 460.08,-48.5396"/>
</g>
</g>
</svg>
