<?xml version="1.0" encoding="UTF-8" standalone="no"?>
<!DOCTYPE svg PUBLIC "-//W3C//DTD SVG 1.1//EN"
 "http://www.w3.org/Graphics/SVG/1.1/DTD/svg11.dtd">
<!-- Generated by graphviz version 2.36.0 (20140111.2315)
 -->
<!-- Title: g Pages: 1 -->
<svg width="154pt" height="194pt"
 viewBox="0.00 0.00 154.00 194.00" xmlns="http://www.w3.org/2000/svg" xmlns:xlink="http://www.w3.org/1999/xlink">
<g id="graph0" class="graph" transform="scale(1 1) rotate(0) translate(4 190)">
<title>g</title>
<polygon fill="white" stroke="none" points="-4,4 -4,-190 150,-190 150,4 -4,4"/>
<!-- x -->
<g id="node1" class="node"><title>x</title>
<polygon fill="none" stroke="black" points="10.5,-149 10.5,-185 135.5,-185 135.5,-149 10.5,-149"/>
<text text-anchor="middle" x="73" y="-163.2" font-family="Times,serif" font-size="16.00">B&#45;tree + position</text>
</g>
<!-- y -->
<g id="node2" class="node"><title>y</title>
<polygon fill="none" stroke="black" points="-0.5,-75 -0.5,-111 146.5,-111 146.5,-75 -0.5,-75"/>
<text text-anchor="middle" x="73" y="-89.2" font-family="Times,serif" font-size="16.00">Tree context + focus</text>
</g>
<!-- x&#45;&gt;y -->
<g id="edge1" class="edge"><title>x&#45;&gt;y:n</title>
<path fill="none" stroke="black" d="M73,-148.975C73,-141.169 73,-131.561 73,-122.106"/>
<polygon fill="black" stroke="black" points="76.5001,-122 73,-112 69.5001,-122 76.5001,-122"/>
</g>
<!-- z -->
<g id="node3" class="node"><title>z</title>
<polygon fill="none" stroke="black" points="3,-1 3,-37 143,-37 143,-1 3,-1"/>
<text text-anchor="middle" x="73" y="-15.2" font-family="Times,serif" font-size="16.00">Framestack + focus</text>
</g>
<!-- y&#45;&gt;z -->
<g id="edge2" class="edge"><title>y&#45;&gt;z:n</title>
<path fill="none" stroke="black" d="M73,-74.9754C73,-67.1689 73,-57.561 73,-48.1065"/>
<polygon fill="black" stroke="black" points="76.5001,-48 73,-38 69.5001,-48 76.5001,-48"/>
</g>
</g>
</svg>
