<?xml version="1.0" encoding="UTF-8" standalone="no"?>
<!DOCTYPE svg PUBLIC "-//W3C//DTD SVG 1.1//EN"
 "http://www.w3.org/Graphics/SVG/1.1/DTD/svg11.dtd">
<!-- Generated by graphviz version 2.36.0 (20140111.2315)
 -->
<!-- Title: g Pages: 1 -->
<svg width="530pt" height="194pt"
 viewBox="0.00 0.00 530.00 194.00" xmlns="http://www.w3.org/2000/svg" xmlns:xlink="http://www.w3.org/1999/xlink">
<g id="graph0" class="graph" transform="scale(1 1) rotate(0) translate(4 190)">
<title>g</title>
<polygon fill="white" stroke="none" points="-4,4 -4,-190 526,-190 526,4 -4,4"/>
<!-- x -->
<g id="node1" class="node"><title>x</title>
<polygon fill="none" stroke="black" points="122.5,-75 122.5,-111 285.5,-111 285.5,-75 122.5,-75"/>
<text text-anchor="middle" x="132.5" y="-89.2" font-family="Times,serif" font-size="16.00"> </text>
<polyline fill="none" stroke="black" points="142.5,-75 142.5,-111 "/>
<text text-anchor="middle" x="155" y="-89.2" font-family="Times,serif" font-size="16.00">4</text>
<polyline fill="none" stroke="black" points="167.5,-75 167.5,-111 "/>
<text text-anchor="middle" x="177.5" y="-89.2" font-family="Times,serif" font-size="16.00"> </text>
<polyline fill="none" stroke="black" points="187.5,-75 187.5,-111 "/>
<text text-anchor="middle" x="200" y="-89.2" font-family="Times,serif" font-size="16.00">7</text>
<polyline fill="none" stroke="black" points="212.5,-75 212.5,-111 "/>
<text text-anchor="middle" x="222.5" y="-89.2" font-family="Times,serif" font-size="16.00"> </text>
<polyline fill="none" stroke="black" points="232.5,-75 232.5,-111 "/>
<text text-anchor="middle" x="249" y="-89.2" font-family="Times,serif" font-size="16.00">10</text>
<polyline fill="none" stroke="black" points="265.5,-75 265.5,-111 "/>
<text text-anchor="middle" x="275.5" y="-89.2" font-family="Times,serif" font-size="16.00"> </text>
</g>
<!-- c -->
<g id="node2" class="node"><title>c</title>
<polygon fill="none" stroke="black" points="-0.5,-1 -0.5,-37 74.5,-37 74.5,-1 -0.5,-1"/>
<text text-anchor="middle" x="12" y="-15.2" font-family="Times,serif" font-size="16.00">1</text>
<polyline fill="none" stroke="black" points="24.5,-1 24.5,-37 "/>
<text text-anchor="middle" x="37" y="-15.2" font-family="Times,serif" font-size="16.00">2</text>
<polyline fill="none" stroke="black" points="49.5,-1 49.5,-37 "/>
<text text-anchor="middle" x="62" y="-15.2" font-family="Times,serif" font-size="16.00">3</text>
</g>
<!-- x&#45;&gt;c -->
<g id="edge1" class="edge"><title>x:c&#45;&gt;c:n</title>
<path fill="none" stroke="black" d="M132,-74C132,-32.9045 53.3035,-74.1971 39.1627,-47.9058"/>
<polygon fill="black" stroke="black" points="42.5526,-47.0233 37,-38 35.7137,-48.5165 42.5526,-47.0233"/>
</g>
<!-- d -->
<g id="node3" class="node"><title>d</title>
<polygon fill="none" stroke="black" points="92.5,-1 92.5,-37 167.5,-37 167.5,-1 92.5,-1"/>
<text text-anchor="middle" x="105" y="-15.2" font-family="Times,serif" font-size="16.00">4</text>
<polyline fill="none" stroke="black" points="117.5,-1 117.5,-37 "/>
<text text-anchor="middle" x="130" y="-15.2" font-family="Times,serif" font-size="16.00">5</text>
<polyline fill="none" stroke="black" points="142.5,-1 142.5,-37 "/>
<text text-anchor="middle" x="155" y="-15.2" font-family="Times,serif" font-size="16.00">6</text>
</g>
<!-- x&#45;&gt;d -->
<g id="edge2" class="edge"><title>x:d&#45;&gt;d:n</title>
<path fill="none" stroke="black" d="M177,-74C177,-51.7989 143.54,-60.1654 133.084,-47.5167"/>
<polygon fill="black" stroke="black" points="136.412,-46.4341 130,-38 129.753,-48.592 136.412,-46.4341"/>
</g>
<!-- e -->
<g id="node4" class="node"><title>e</title>
<polygon fill="none" stroke="black" points="185.5,-1 185.5,-37 260.5,-37 260.5,-1 185.5,-1"/>
<text text-anchor="middle" x="198" y="-15.2" font-family="Times,serif" font-size="16.00">7</text>
<polyline fill="none" stroke="black" points="210.5,-1 210.5,-37 "/>
<text text-anchor="middle" x="223" y="-15.2" font-family="Times,serif" font-size="16.00">8</text>
<polyline fill="none" stroke="black" points="235.5,-1 235.5,-37 "/>
<text text-anchor="middle" x="248" y="-15.2" font-family="Times,serif" font-size="16.00">9</text>
</g>
<!-- x&#45;&gt;e -->
<g id="edge3" class="edge"><title>x:e&#45;&gt;e:n</title>
<path fill="none" stroke="black" d="M223,-74C223,-62 223,-56.75 223,-48.125"/>
<polygon fill="black" stroke="black" points="226.5,-48 223,-38 219.5,-48 226.5,-48"/>
</g>
<!-- f -->
<g id="node5" class="node"><title>f</title>
<polygon fill="none" stroke="black" points="278.5,-1 278.5,-37 377.5,-37 377.5,-1 278.5,-1"/>
<text text-anchor="middle" x="295" y="-15.2" font-family="Times,serif" font-size="16.00">10</text>
<polyline fill="none" stroke="black" points="311.5,-1 311.5,-37 "/>
<text text-anchor="middle" x="328" y="-15.2" font-family="Times,serif" font-size="16.00">11</text>
<polyline fill="none" stroke="black" points="344.5,-1 344.5,-37 "/>
<text text-anchor="middle" x="361" y="-15.2" font-family="Times,serif" font-size="16.00">12</text>
</g>
<!-- x&#45;&gt;f -->
<g id="edge4" class="edge"><title>x:f&#45;&gt;f:n</title>
<path fill="none" stroke="black" d="M276,-74C276,-50.0633 313.708,-61.1717 324.903,-47.639"/>
<polygon fill="black" stroke="black" points="328.273,-48.5913 328,-38 321.609,-46.4499 328.273,-48.5913"/>
</g>
<!-- y -->
<g id="node6" class="node"><title>y</title>
<polygon fill="none" stroke="black" points="288.5,-149 288.5,-185 361.5,-185 361.5,-149 288.5,-149"/>
<text text-anchor="middle" x="298.5" y="-163.2" font-family="Times,serif" font-size="16.00"> </text>
<polyline fill="none" stroke="black" points="308.5,-149 308.5,-185 "/>
<text text-anchor="middle" x="325" y="-163.2" font-family="Times,serif" font-size="16.00">13</text>
<polyline fill="none" stroke="black" points="341.5,-149 341.5,-185 "/>
<text text-anchor="middle" x="351.5" y="-163.2" font-family="Times,serif" font-size="16.00"> </text>
</g>
<!-- y&#45;&gt;x -->
<g id="edge5" class="edge"><title>y:x&#45;&gt;x:n</title>
<path fill="none" stroke="black" d="M298,-148C298,-107.283 220.132,-147.921 206.14,-121.822"/>
<polygon fill="black" stroke="black" points="209.549,-121.026 204,-112 202.709,-122.516 209.549,-121.026"/>
</g>
<!-- z -->
<g id="node7" class="node"><title>z</title>
<polygon fill="none" stroke="black" points="413,-75 413,-111 481,-111 481,-75 413,-75"/>
<text text-anchor="middle" x="423" y="-89.2" font-family="Times,serif" font-size="16.00"> </text>
<polyline fill="none" stroke="black" points="433,-75 433,-111 "/>
<text text-anchor="middle" x="447" y="-89.2" font-family="Times,serif" font-size="16.00">...</text>
<polyline fill="none" stroke="black" points="461,-75 461,-111 "/>
<text text-anchor="middle" x="471" y="-89.2" font-family="Times,serif" font-size="16.00"> </text>
</g>
<!-- y&#45;&gt;z -->
<g id="edge6" class="edge"><title>y:z&#45;&gt;z:n</title>
<path fill="none" stroke="black" d="M352,-148C352,-106.904 430.697,-148.197 444.837,-121.906"/>
<polygon fill="black" stroke="black" points="448.286,-122.516 447,-112 441.447,-121.023 448.286,-122.516"/>
</g>
<!-- a -->
<g id="node8" class="node"><title>a</title>
<polygon fill="none" stroke="black" points="396,-1 396,-37 450,-37 450,-1 396,-1"/>
<text text-anchor="middle" x="423" y="-15.2" font-family="Times,serif" font-size="16.00">...</text>
</g>
<!-- z&#45;&gt;a -->
<g id="edge7" class="edge"><title>z:a&#45;&gt;a:n</title>
<path fill="none" stroke="black" d="M423,-74C423,-62 423,-56.75 423,-48.125"/>
<polygon fill="black" stroke="black" points="426.5,-48 423,-38 419.5,-48 426.5,-48"/>
</g>
<!-- b -->
<g id="node9" class="node"><title>b</title>
<polygon fill="none" stroke="black" points="468,-1 468,-37 522,-37 522,-1 468,-1"/>
<text text-anchor="middle" x="495" y="-15.2" font-family="Times,serif" font-size="16.00">...</text>
</g>
<!-- z&#45;&gt;b -->
<g id="edge8" class="edge"><title>z:b&#45;&gt;b:n</title>
<path fill="none" stroke="black" d="M471,-74C471,-58.8266 485.943,-57.1572 492.247,-47.6808"/>
<polygon fill="black" stroke="black" points="495.631,-48.576 495,-38 488.898,-46.6612 495.631,-48.576"/>
</g>
</g>
</svg>
