<?xml version="1.0" encoding="UTF-8" standalone="no"?>
<!DOCTYPE svg PUBLIC "-//W3C//DTD SVG 1.1//EN"
 "http://www.w3.org/Graphics/SVG/1.1/DTD/svg11.dtd">
<!-- Generated by graphviz version 2.36.0 (20140111.2315)
 -->
<!-- Title: g Pages: 1 -->
<svg width="510pt" height="194pt"
 viewBox="0.00 0.00 510.00 194.00" xmlns="http://www.w3.org/2000/svg" xmlns:xlink="http://www.w3.org/1999/xlink">
<g id="graph0" class="graph" transform="scale(1 1) rotate(0) translate(4 190)">
<title>g</title>
<polygon fill="white" stroke="none" points="-4,4 -4,-190 506,-190 506,4 -4,4"/>
<!-- x -->
<g id="node1" class="node"><title>x</title>
<polygon fill="none" stroke="black" points="102.5,-75 102.5,-111 265.5,-111 265.5,-75 102.5,-75"/>
<text text-anchor="middle" x="112.5" y="-89.2" font-family="Times,serif" font-size="16.00"> </text>
<polyline fill="none" stroke="black" points="122.5,-75 122.5,-111 "/>
<text text-anchor="middle" x="135" y="-89.2" font-family="Times,serif" font-size="16.00">4</text>
<polyline fill="none" stroke="black" points="147.5,-75 147.5,-111 "/>
<text text-anchor="middle" x="157.5" y="-89.2" font-family="Times,serif" font-size="16.00"> </text>
<polyline fill="none" stroke="black" points="167.5,-75 167.5,-111 "/>
<text text-anchor="middle" x="180" y="-89.2" font-family="Times,serif" font-size="16.00">7</text>
<polyline fill="none" stroke="black" points="192.5,-75 192.5,-111 "/>
<text text-anchor="middle" x="202.5" y="-89.2" font-family="Times,serif" font-size="16.00"> </text>
<polyline fill="none" stroke="black" points="212.5,-75 212.5,-111 "/>
<text text-anchor="middle" x="229" y="-89.2" font-family="Times,serif" font-size="16.00">10</text>
<polyline fill="none" stroke="black" points="245.5,-75 245.5,-111 "/>
<text text-anchor="middle" x="255.5" y="-89.2" font-family="Times,serif" font-size="16.00"> </text>
</g>
<!-- c -->
<g id="node2" class="node"><title>c</title>
<polygon fill="none" stroke="black" points="-0.5,-1 -0.5,-37 74.5,-37 74.5,-1 -0.5,-1"/>
<text text-anchor="middle" x="12" y="-15.2" font-family="Times,serif" font-size="16.00">1</text>
<polyline fill="none" stroke="black" points="24.5,-1 24.5,-37 "/>
<text text-anchor="middle" x="37" y="-15.2" font-family="Times,serif" font-size="16.00">2</text>
<polyline fill="none" stroke="black" points="49.5,-1 49.5,-37 "/>
<text text-anchor="middle" x="62" y="-15.2" font-family="Times,serif" font-size="16.00">3</text>
</g>
<!-- x&#45;&gt;c -->
<g id="edge1" class="edge"><title>x:c&#45;&gt;c:n</title>
<path fill="none" stroke="black" d="M112,-74C112,-41.214 53.0297,-67.3381 39.6693,-47.899"/>
<polygon fill="black" stroke="black" points="42.9829,-46.7439 37,-38 36.2243,-48.5664 42.9829,-46.7439"/>
</g>
<!-- d -->
<g id="node3" class="node"><title>d</title>
<polygon fill="none" stroke="black" points="93,-1 93,-37 147,-37 147,-1 93,-1"/>
<text text-anchor="middle" x="106.5" y="-15.2" font-family="Times,serif" font-size="16.00">4</text>
<polyline fill="none" stroke="black" points="120,-1 120,-37 "/>
<text text-anchor="middle" x="133.5" y="-15.2" font-family="Times,serif" font-size="16.00">6</text>
</g>
<!-- x&#45;&gt;d -->
<g id="edge2" class="edge"><title>x:d&#45;&gt;d:n</title>
<path fill="none" stroke="black" d="M157,-74C157,-55.1789 132.102,-58.4505 123.155,-47.569"/>
<polygon fill="black" stroke="black" points="126.455,-46.4014 120,-38 119.807,-48.5931 126.455,-46.4014"/>
</g>
<!-- e -->
<g id="node4" class="node"><title>e</title>
<polygon fill="none" stroke="black" points="165.5,-1 165.5,-37 240.5,-37 240.5,-1 165.5,-1"/>
<text text-anchor="middle" x="178" y="-15.2" font-family="Times,serif" font-size="16.00">7</text>
<polyline fill="none" stroke="black" points="190.5,-1 190.5,-37 "/>
<text text-anchor="middle" x="203" y="-15.2" font-family="Times,serif" font-size="16.00">8</text>
<polyline fill="none" stroke="black" points="215.5,-1 215.5,-37 "/>
<text text-anchor="middle" x="228" y="-15.2" font-family="Times,serif" font-size="16.00">9</text>
</g>
<!-- x&#45;&gt;e -->
<g id="edge3" class="edge"><title>x:e&#45;&gt;e:n</title>
<path fill="none" stroke="black" d="M203,-74C203,-62 203,-56.75 203,-48.125"/>
<polygon fill="black" stroke="black" points="206.5,-48 203,-38 199.5,-48 206.5,-48"/>
</g>
<!-- f -->
<g id="node5" class="node"><title>f</title>
<polygon fill="none" stroke="black" points="258.5,-1 258.5,-37 357.5,-37 357.5,-1 258.5,-1"/>
<text text-anchor="middle" x="275" y="-15.2" font-family="Times,serif" font-size="16.00">10</text>
<polyline fill="none" stroke="black" points="291.5,-1 291.5,-37 "/>
<text text-anchor="middle" x="308" y="-15.2" font-family="Times,serif" font-size="16.00">11</text>
<polyline fill="none" stroke="black" points="324.5,-1 324.5,-37 "/>
<text text-anchor="middle" x="341" y="-15.2" font-family="Times,serif" font-size="16.00">12</text>
</g>
<!-- x&#45;&gt;f -->
<g id="edge4" class="edge"><title>x:f&#45;&gt;f:n</title>
<path fill="none" stroke="black" d="M256,-74C256,-50.0633 293.708,-61.1717 304.903,-47.639"/>
<polygon fill="black" stroke="black" points="308.273,-48.5913 308,-38 301.609,-46.4499 308.273,-48.5913"/>
</g>
<!-- y -->
<g id="node6" class="node"><title>y</title>
<polygon fill="none" stroke="black" points="268.5,-149 268.5,-185 341.5,-185 341.5,-149 268.5,-149"/>
<text text-anchor="middle" x="278.5" y="-163.2" font-family="Times,serif" font-size="16.00"> </text>
<polyline fill="none" stroke="black" points="288.5,-149 288.5,-185 "/>
<text text-anchor="middle" x="305" y="-163.2" font-family="Times,serif" font-size="16.00">13</text>
<polyline fill="none" stroke="black" points="321.5,-149 321.5,-185 "/>
<text text-anchor="middle" x="331.5" y="-163.2" font-family="Times,serif" font-size="16.00"> </text>
</g>
<!-- y&#45;&gt;x -->
<g id="edge5" class="edge"><title>y:x&#45;&gt;x:n</title>
<path fill="none" stroke="black" d="M278,-148C278,-107.283 200.132,-147.921 186.14,-121.822"/>
<polygon fill="black" stroke="black" points="189.549,-121.026 184,-112 182.709,-122.516 189.549,-121.026"/>
</g>
<!-- z -->
<g id="node7" class="node"><title>z</title>
<polygon fill="none" stroke="black" points="393,-75 393,-111 461,-111 461,-75 393,-75"/>
<text text-anchor="middle" x="403" y="-89.2" font-family="Times,serif" font-size="16.00"> </text>
<polyline fill="none" stroke="black" points="413,-75 413,-111 "/>
<text text-anchor="middle" x="427" y="-89.2" font-family="Times,serif" font-size="16.00">...</text>
<polyline fill="none" stroke="black" points="441,-75 441,-111 "/>
<text text-anchor="middle" x="451" y="-89.2" font-family="Times,serif" font-size="16.00"> </text>
</g>
<!-- y&#45;&gt;z -->
<g id="edge6" class="edge"><title>y:z&#45;&gt;z:n</title>
<path fill="none" stroke="black" d="M332,-148C332,-106.904 410.697,-148.197 424.837,-121.906"/>
<polygon fill="black" stroke="black" points="428.286,-122.516 427,-112 421.447,-121.023 428.286,-122.516"/>
</g>
<!-- a -->
<g id="node8" class="node"><title>a</title>
<polygon fill="none" stroke="black" points="376,-1 376,-37 430,-37 430,-1 376,-1"/>
<text text-anchor="middle" x="403" y="-15.2" font-family="Times,serif" font-size="16.00">...</text>
</g>
<!-- z&#45;&gt;a -->
<g id="edge7" class="edge"><title>z:a&#45;&gt;a:n</title>
<path fill="none" stroke="black" d="M403,-74C403,-62 403,-56.75 403,-48.125"/>
<polygon fill="black" stroke="black" points="406.5,-48 403,-38 399.5,-48 406.5,-48"/>
</g>
<!-- b -->
<g id="node9" class="node"><title>b</title>
<polygon fill="none" stroke="black" points="448,-1 448,-37 502,-37 502,-1 448,-1"/>
<text text-anchor="middle" x="475" y="-15.2" font-family="Times,serif" font-size="16.00">...</text>
</g>
<!-- z&#45;&gt;b -->
<g id="edge8" class="edge"><title>z:b&#45;&gt;b:n</title>
<path fill="none" stroke="black" d="M451,-74C451,-58.8266 465.943,-57.1572 472.247,-47.6808"/>
<polygon fill="black" stroke="black" points="475.631,-48.576 475,-38 468.898,-46.6612 475.631,-48.576"/>
</g>
</g>
</svg>
