<?xml version="1.0" encoding="UTF-8" standalone="no"?>
<!DOCTYPE svg PUBLIC "-//W3C//DTD SVG 1.1//EN"
 "http://www.w3.org/Graphics/SVG/1.1/DTD/svg11.dtd">
<!-- Generated by graphviz version 2.36.0 (20140111.2315)
 -->
<!-- Title: g Pages: 1 -->
<svg width="422pt" height="120pt"
 viewBox="0.00 0.00 422.00 120.00" xmlns="http://www.w3.org/2000/svg" xmlns:xlink="http://www.w3.org/1999/xlink">
<g id="graph0" class="graph" transform="scale(1 1) rotate(0) translate(4 116)">
<title>g</title>
<polygon fill="white" stroke="none" points="-4,4 -4,-116 418,-116 418,4 -4,4"/>
<!-- x -->
<g id="node1" class="node"><title>x</title>
<polygon fill="none" stroke="black" points="80.5,-75 80.5,-111 349.5,-111 349.5,-75 80.5,-75"/>
<text text-anchor="middle" x="90.5" y="-89.2" font-family="Times,serif" font-size="16.00"> </text>
<polyline fill="none" stroke="black" points="100.5,-75 100.5,-111 "/>
<text text-anchor="middle" x="113" y="-89.2" font-family="Times,serif" font-size="16.00">3</text>
<polyline fill="none" stroke="black" points="125.5,-75 125.5,-111 "/>
<text text-anchor="middle" x="135.5" y="-89.2" font-family="Times,serif" font-size="16.00"> </text>
<polyline fill="none" stroke="black" points="145.5,-75 145.5,-111 "/>
<text text-anchor="middle" x="158" y="-89.2" font-family="Times,serif" font-size="16.00">5</text>
<polyline fill="none" stroke="black" points="170.5,-75 170.5,-111 "/>
<text text-anchor="middle" x="180.5" y="-89.2" font-family="Times,serif" font-size="16.00"> </text>
<polyline fill="none" stroke="black" points="190.5,-75 190.5,-111 "/>
<text text-anchor="middle" x="207" y="-89.2" font-family="Times,serif" font-size="16.00">10</text>
<polyline fill="none" stroke="black" points="223.5,-75 223.5,-111 "/>
<text text-anchor="middle" x="233.5" y="-89.2" font-family="Times,serif" font-size="16.00"> </text>
<polyline fill="none" stroke="black" points="243.5,-75 243.5,-111 "/>
<text text-anchor="middle" x="260" y="-89.2" font-family="Times,serif" font-size="16.00">15</text>
<polyline fill="none" stroke="black" points="276.5,-75 276.5,-111 "/>
<text text-anchor="middle" x="286.5" y="-89.2" font-family="Times,serif" font-size="16.00"> </text>
<polyline fill="none" stroke="black" points="296.5,-75 296.5,-111 "/>
<text text-anchor="middle" x="313" y="-89.2" font-family="Times,serif" font-size="16.00">20</text>
<polyline fill="none" stroke="black" points="329.5,-75 329.5,-111 "/>
<text text-anchor="middle" x="339.5" y="-89.2" font-family="Times,serif" font-size="16.00"> </text>
</g>
<!-- c -->
<g id="node2" class="node"><title>c</title>
<polygon fill="none" stroke="black" points="0,-1 0,-37 54,-37 54,-1 0,-1"/>
<text text-anchor="middle" x="27" y="-15.2" font-family="Times,serif" font-size="16.00">...</text>
</g>
<!-- x&#45;&gt;c -->
<g id="edge1" class="edge"><title>x:c&#45;&gt;c:n</title>
<path fill="none" stroke="black" d="M90,-74C90,-46.034 42.6231,-63.7508 30.0386,-47.9193"/>
<polygon fill="black" stroke="black" points="33.2756,-46.5363 27,-38 26.5826,-48.5866 33.2756,-46.5363"/>
</g>
<!-- d -->
<g id="node3" class="node"><title>d</title>
<polygon fill="none" stroke="black" points="72,-1 72,-37 126,-37 126,-1 72,-1"/>
<text text-anchor="middle" x="99" y="-15.2" font-family="Times,serif" font-size="16.00">...</text>
</g>
<!-- x&#45;&gt;d -->
<g id="edge2" class="edge"><title>x:d&#45;&gt;d:n</title>
<path fill="none" stroke="black" d="M135,-74C135,-55.6152 111.234,-58.2777 102.322,-47.7857"/>
<polygon fill="black" stroke="black" points="105.529,-46.344 99,-38 98.9007,-48.5944 105.529,-46.344"/>
</g>
<!-- e -->
<g id="node4" class="node"><title>e</title>
<polygon fill="none" stroke="black" points="144,-1 144,-37 198,-37 198,-1 144,-1"/>
<text text-anchor="middle" x="171" y="-15.2" font-family="Times,serif" font-size="16.00">...</text>
</g>
<!-- x&#45;&gt;e -->
<g id="edge3" class="edge"><title>x:e&#45;&gt;e:n</title>
<path fill="none" stroke="black" d="M180,-74C180,-61.5018 174.831,-56.7434 172.328,-47.9942"/>
<polygon fill="black" stroke="black" points="175.787,-47.4518 171,-38 168.848,-48.3739 175.787,-47.4518"/>
</g>
<!-- y -->
<g id="node5" class="node"><title>y</title>
<polygon fill="none" stroke="black" points="216,-1 216,-37 270,-37 270,-1 216,-1"/>
<text text-anchor="middle" x="243" y="-15.2" font-family="Times,serif" font-size="16.00">...</text>
</g>
<!-- x&#45;&gt;y -->
<g id="edge4" class="edge"><title>x:y&#45;&gt;y:n</title>
<path fill="none" stroke="black" d="M234,-74C234,-61.5018 239.169,-56.7434 241.672,-47.9942"/>
<polygon fill="black" stroke="black" points="245.152,-48.3739 243,-38 238.213,-47.4518 245.152,-48.3739"/>
</g>
<!-- z -->
<g id="node6" class="node"><title>z</title>
<polygon fill="none" stroke="black" points="288,-1 288,-37 342,-37 342,-1 288,-1"/>
<text text-anchor="middle" x="315" y="-15.2" font-family="Times,serif" font-size="16.00">...</text>
</g>
<!-- x&#45;&gt;z -->
<g id="edge5" class="edge"><title>x:z&#45;&gt;z:n</title>
<path fill="none" stroke="black" d="M287,-74C287,-57.8475 304.78,-57.4492 312.004,-47.6969"/>
<polygon fill="black" stroke="black" points="315.391,-48.5876 315,-38 308.704,-46.5209 315.391,-48.5876"/>
</g>
<!-- w -->
<g id="node7" class="node"><title>w</title>
<polygon fill="none" stroke="black" points="360,-1 360,-37 414,-37 414,-1 360,-1"/>
<text text-anchor="middle" x="387" y="-15.2" font-family="Times,serif" font-size="16.00">...</text>
</g>
<!-- x&#45;&gt;w -->
<g id="edge6" class="edge"><title>x:w&#45;&gt;w:n</title>
<path fill="none" stroke="black" d="M340,-74C340,-51.7989 373.46,-60.1654 383.916,-47.5167"/>
<polygon fill="black" stroke="black" points="387.247,-48.592 387,-38 380.588,-46.4341 387.247,-48.592"/>
</g>
</g>
</svg>
