<?xml version="1.0" encoding="UTF-8" standalone="no"?>
<!DOCTYPE svg PUBLIC "-//W3C//DTD SVG 1.1//EN"
 "http://www.w3.org/Graphics/SVG/1.1/DTD/svg11.dtd">
<!-- Generated by graphviz version 2.36.0 (20140111.2315)
 -->
<!-- Title: g Pages: 1 -->
<svg width="418pt" height="120pt"
 viewBox="0.00 0.00 418.00 120.00" xmlns="http://www.w3.org/2000/svg" xmlns:xlink="http://www.w3.org/1999/xlink">
<g id="graph0" class="graph" transform="scale(1 1) rotate(0) translate(4 116)">
<title>g</title>
<polygon fill="white" stroke="none" points="-4,4 -4,-116 414,-116 414,4 -4,4"/>
<!-- x -->
<g id="node1" class="node"><title>x</title>
<polygon fill="none" stroke="black" points="116.5,-75 116.5,-111 327.5,-111 327.5,-75 116.5,-75"/>
<text text-anchor="middle" x="126.5" y="-89.2" font-family="Times,serif" font-size="16.00"> </text>
<polyline fill="none" stroke="black" points="136.5,-75 136.5,-111 "/>
<text text-anchor="middle" x="149" y="-89.2" font-family="Times,serif" font-size="16.00">3</text>
<polyline fill="none" stroke="black" points="161.5,-75 161.5,-111 "/>
<text text-anchor="middle" x="171.5" y="-89.2" font-family="Times,serif" font-size="16.00"> </text>
<polyline fill="none" stroke="black" points="181.5,-75 181.5,-111 "/>
<text text-anchor="middle" x="194" y="-89.2" font-family="Times,serif" font-size="16.00">6</text>
<polyline fill="none" stroke="black" points="206.5,-75 206.5,-111 "/>
<text text-anchor="middle" x="216.5" y="-89.2" font-family="Times,serif" font-size="16.00"> </text>
<polyline fill="none" stroke="black" points="226.5,-75 226.5,-111 "/>
<text text-anchor="middle" x="243" y="-89.2" font-family="Times,serif" font-size="16.00">10</text>
<polyline fill="none" stroke="black" points="259.5,-75 259.5,-111 "/>
<text text-anchor="middle" x="269.5" y="-89.2" font-family="Times,serif" font-size="16.00"> </text>
<polyline fill="none" stroke="black" points="279.5,-75 279.5,-111 "/>
<text text-anchor="middle" x="293.5" y="-89.2" font-family="Times,serif" font-size="16.00">...</text>
<polyline fill="none" stroke="black" points="307.5,-75 307.5,-111 "/>
<text text-anchor="middle" x="317.5" y="-89.2" font-family="Times,serif" font-size="16.00"> </text>
</g>
<!-- b -->
<g id="node2" class="node"><title>b</title>
<polygon fill="none" stroke="black" points="0,-1 0,-37 54,-37 54,-1 0,-1"/>
<text text-anchor="middle" x="13.5" y="-15.2" font-family="Times,serif" font-size="16.00">1</text>
<polyline fill="none" stroke="black" points="27,-1 27,-37 "/>
<text text-anchor="middle" x="40.5" y="-15.2" font-family="Times,serif" font-size="16.00">2</text>
</g>
<!-- x&#45;&gt;b -->
<g id="edge1" class="edge"><title>x:b&#45;&gt;b:n</title>
<path fill="none" stroke="black" d="M126,-74C126,-31.2047 43.2845,-75.6838 29.0678,-47.8888"/>
<polygon fill="black" stroke="black" points="32.4727,-47.0719 27,-38 25.6209,-48.5047 32.4727,-47.0719"/>
</g>
<!-- c -->
<g id="node3" class="node"><title>c</title>
<polygon fill="none" stroke="black" points="72.5,-1 72.5,-37 147.5,-37 147.5,-1 72.5,-1"/>
<text text-anchor="middle" x="85" y="-15.2" font-family="Times,serif" font-size="16.00">3</text>
<polyline fill="none" stroke="black" points="97.5,-1 97.5,-37 "/>
<text text-anchor="middle" x="110" y="-15.2" font-family="Times,serif" font-size="16.00">4</text>
<polyline fill="none" stroke="black" points="122.5,-1 122.5,-37 "/>
<text text-anchor="middle" x="135" y="-15.2" font-family="Times,serif" font-size="16.00">5</text>
</g>
<!-- x&#45;&gt;c -->
<g id="edge2" class="edge"><title>x:c&#45;&gt;c:n</title>
<path fill="none" stroke="black" d="M171,-74C171,-46.7006 125.127,-63.3498 112.942,-47.7242"/>
<polygon fill="black" stroke="black" points="116.246,-46.5579 110,-38 109.546,-48.5851 116.246,-46.5579"/>
</g>
<!-- z -->
<g id="node4" class="node"><title>z</title>
<polygon fill="none" stroke="black" points="166,-1 166,-37 266,-37 266,-1 166,-1"/>
<text text-anchor="middle" x="178.5" y="-15.2" font-family="Times,serif" font-size="16.00">6</text>
<polyline fill="none" stroke="black" points="191,-1 191,-37 "/>
<text text-anchor="middle" x="203.5" y="-15.2" font-family="Times,serif" font-size="16.00">7</text>
<polyline fill="none" stroke="black" points="216,-1 216,-37 "/>
<text text-anchor="middle" x="228.5" y="-15.2" font-family="Times,serif" font-size="16.00">8</text>
<polyline fill="none" stroke="black" points="241,-1 241,-37 "/>
<text text-anchor="middle" x="253.5" y="-15.2" font-family="Times,serif" font-size="16.00">9</text>
</g>
<!-- x&#45;&gt;z -->
<g id="edge3" class="edge"><title>x:z&#45;&gt;z:n</title>
<path fill="none" stroke="black" d="M216,-74C216,-62 216,-56.75 216,-48.125"/>
<polygon fill="black" stroke="black" points="219.5,-48 216,-38 212.5,-48 219.5,-48"/>
</g>
<!-- w -->
<g id="node5" class="node"><title>w</title>
<polygon fill="none" stroke="black" points="284,-1 284,-37 338,-37 338,-1 284,-1"/>
<text text-anchor="middle" x="311" y="-15.2" font-family="Times,serif" font-size="16.00">...</text>
</g>
<!-- x&#45;&gt;w -->
<g id="edge4" class="edge"><title>x:w&#45;&gt;w:n</title>
<path fill="none" stroke="black" d="M270,-74C270,-53.9182 298.117,-59.0386 307.783,-47.6201"/>
<polygon fill="black" stroke="black" points="311.148,-48.5938 311,-38 304.509,-46.3737 311.148,-48.5938"/>
</g>
<!-- a -->
<g id="node6" class="node"><title>a</title>
<polygon fill="none" stroke="black" points="356,-1 356,-37 410,-37 410,-1 356,-1"/>
<text text-anchor="middle" x="383" y="-15.2" font-family="Times,serif" font-size="16.00">...</text>
</g>
<!-- x&#45;&gt;a -->
<g id="edge5" class="edge"><title>x:a&#45;&gt;a:n</title>
<path fill="none" stroke="black" d="M318,-74C318,-45.1042 367.766,-64.4974 380.207,-47.6738"/>
<polygon fill="black" stroke="black" points="383.589,-48.5785 383,-38 376.863,-46.6367 383.589,-48.5785"/>
</g>
</g>
</svg>
