<?xml version="1.0" encoding="UTF-8" standalone="no"?>
<!DOCTYPE svg PUBLIC "-//W3C//DTD SVG 1.1//EN"
 "http://www.w3.org/Graphics/SVG/1.1/DTD/svg11.dtd">
<!-- Generated by graphviz version 2.36.0 (20140111.2315)
 -->
<!-- Title: g Pages: 1 -->
<svg width="422pt" height="194pt"
 viewBox="0.00 0.00 422.00 194.00" xmlns="http://www.w3.org/2000/svg" xmlns:xlink="http://www.w3.org/1999/xlink">
<g id="graph0" class="graph" transform="scale(1 1) rotate(0) translate(4 190)">
<title>g</title>
<polygon fill="white" stroke="none" points="-4,4 -4,-190 418,-190 418,4 -4,4"/>
<!-- p -->
<g id="node1" class="node"><title>p</title>
<polygon fill="none" stroke="black" points="173.5,-149 173.5,-185 246.5,-185 246.5,-149 173.5,-149"/>
<text text-anchor="middle" x="183.5" y="-163.2" font-family="Times,serif" font-size="16.00"> </text>
<polyline fill="none" stroke="black" points="193.5,-149 193.5,-185 "/>
<text text-anchor="middle" x="210" y="-163.2" font-family="Times,serif" font-size="16.00">10</text>
<polyline fill="none" stroke="black" points="226.5,-149 226.5,-185 "/>
<text text-anchor="middle" x="236.5" y="-163.2" font-family="Times,serif" font-size="16.00"> </text>
</g>
<!-- x -->
<g id="node2" class="node"><title>x</title>
<polygon fill="none" stroke="black" points="57,-75 57,-111 167,-111 167,-75 57,-75"/>
<text text-anchor="middle" x="67" y="-89.2" font-family="Times,serif" font-size="16.00"> </text>
<polyline fill="none" stroke="black" points="77,-75 77,-111 "/>
<text text-anchor="middle" x="89.5" y="-89.2" font-family="Times,serif" font-size="16.00">3</text>
<polyline fill="none" stroke="black" points="102,-75 102,-111 "/>
<text text-anchor="middle" x="112" y="-89.2" font-family="Times,serif" font-size="16.00"> </text>
<polyline fill="none" stroke="black" points="122,-75 122,-111 "/>
<text text-anchor="middle" x="134.5" y="-89.2" font-family="Times,serif" font-size="16.00">5</text>
<polyline fill="none" stroke="black" points="147,-75 147,-111 "/>
<text text-anchor="middle" x="157" y="-89.2" font-family="Times,serif" font-size="16.00"> </text>
</g>
<!-- p&#45;&gt;x -->
<g id="edge1" class="edge"><title>p:x&#45;&gt;x:n</title>
<path fill="none" stroke="black" d="M183,-148C183,-116.766 127.666,-140.196 114.697,-121.774"/>
<polygon fill="black" stroke="black" points="118.034,-120.709 112,-112 111.286,-122.571 118.034,-120.709"/>
</g>
<!-- x2 -->
<g id="node3" class="node"><title>x2</title>
<polygon fill="none" stroke="black" points="242,-75 242,-111 368,-111 368,-75 242,-75"/>
<text text-anchor="middle" x="252" y="-89.2" font-family="Times,serif" font-size="16.00"> </text>
<polyline fill="none" stroke="black" points="262,-75 262,-111 "/>
<text text-anchor="middle" x="278.5" y="-89.2" font-family="Times,serif" font-size="16.00">15</text>
<polyline fill="none" stroke="black" points="295,-75 295,-111 "/>
<text text-anchor="middle" x="305" y="-89.2" font-family="Times,serif" font-size="16.00"> </text>
<polyline fill="none" stroke="black" points="315,-75 315,-111 "/>
<text text-anchor="middle" x="331.5" y="-89.2" font-family="Times,serif" font-size="16.00">20</text>
<polyline fill="none" stroke="black" points="348,-75 348,-111 "/>
<text text-anchor="middle" x="358" y="-89.2" font-family="Times,serif" font-size="16.00"> </text>
</g>
<!-- p&#45;&gt;x2 -->
<g id="edge2" class="edge"><title>p:x2&#45;&gt;x2:n</title>
<path fill="none" stroke="black" d="M237,-148C237,-118.078 289.062,-139.139 302.078,-121.962"/>
<polygon fill="black" stroke="black" points="305.544,-122.581 305,-112 298.827,-120.611 305.544,-122.581"/>
</g>
<!-- c -->
<g id="node4" class="node"><title>c</title>
<polygon fill="none" stroke="black" points="0,-1 0,-37 54,-37 54,-1 0,-1"/>
<text text-anchor="middle" x="27" y="-15.2" font-family="Times,serif" font-size="16.00">...</text>
</g>
<!-- x&#45;&gt;c -->
<g id="edge3" class="edge"><title>x:c&#45;&gt;c:n</title>
<path fill="none" stroke="black" d="M67,-74C67,-54.1933 39.5684,-58.9054 30.1387,-47.527"/>
<polygon fill="black" stroke="black" points="33.4534,-46.4026 27,-38 26.8049,-48.593 33.4534,-46.4026"/>
</g>
<!-- d -->
<g id="node5" class="node"><title>d</title>
<polygon fill="none" stroke="black" points="72,-1 72,-37 126,-37 126,-1 72,-1"/>
<text text-anchor="middle" x="99" y="-15.2" font-family="Times,serif" font-size="16.00">...</text>
</g>
<!-- x&#45;&gt;d -->
<g id="edge4" class="edge"><title>x:d&#45;&gt;d:n</title>
<path fill="none" stroke="black" d="M112,-74C112,-60.9758 104.38,-56.764 100.808,-47.8707"/>
<polygon fill="black" stroke="black" points="104.244,-47.2059 99,-38 97.3587,-48.4669 104.244,-47.2059"/>
</g>
<!-- e -->
<g id="node6" class="node"><title>e</title>
<polygon fill="none" stroke="black" points="144,-1 144,-37 198,-37 198,-1 144,-1"/>
<text text-anchor="middle" x="171" y="-15.2" font-family="Times,serif" font-size="16.00">...</text>
</g>
<!-- x&#45;&gt;e -->
<g id="edge5" class="edge"><title>x:e&#45;&gt;e:n</title>
<path fill="none" stroke="black" d="M157,-74C157,-60.8563 165.207,-56.7995 169.053,-47.9153"/>
<polygon fill="black" stroke="black" points="172.508,-48.487 171,-38 165.639,-47.1384 172.508,-48.487"/>
</g>
<!-- y -->
<g id="node7" class="node"><title>y</title>
<polygon fill="none" stroke="black" points="216,-1 216,-37 270,-37 270,-1 216,-1"/>
<text text-anchor="middle" x="243" y="-15.2" font-family="Times,serif" font-size="16.00">...</text>
</g>
<!-- x2&#45;&gt;y -->
<g id="edge6" class="edge"><title>x2:y&#45;&gt;y:n</title>
<path fill="none" stroke="black" d="M252,-74C252,-61.5018 246.831,-56.7434 244.328,-47.9942"/>
<polygon fill="black" stroke="black" points="247.787,-47.4518 243,-38 240.848,-48.3739 247.787,-47.4518"/>
</g>
<!-- z -->
<g id="node8" class="node"><title>z</title>
<polygon fill="none" stroke="black" points="288,-1 288,-37 342,-37 342,-1 288,-1"/>
<text text-anchor="middle" x="315" y="-15.2" font-family="Times,serif" font-size="16.00">...</text>
</g>
<!-- x2&#45;&gt;z -->
<g id="edge7" class="edge"><title>x2:z&#45;&gt;z:n</title>
<path fill="none" stroke="black" d="M305,-74C305,-61.4159 310.743,-56.7669 313.524,-48.0264"/>
<polygon fill="black" stroke="black" points="317.007,-48.4031 315,-38 310.081,-47.3838 317.007,-48.4031"/>
</g>
<!-- w -->
<g id="node9" class="node"><title>w</title>
<polygon fill="none" stroke="black" points="360,-1 360,-37 414,-37 414,-1 360,-1"/>
<text text-anchor="middle" x="387" y="-15.2" font-family="Times,serif" font-size="16.00">...</text>
</g>
<!-- x2&#45;&gt;w -->
<g id="edge8" class="edge"><title>x2:w&#45;&gt;w:n</title>
<path fill="none" stroke="black" d="M358,-74C358,-57.6277 376.415,-57.5351 383.896,-47.7764"/>
<polygon fill="black" stroke="black" points="387.31,-48.5903 387,-38 380.638,-46.4723 387.31,-48.5903"/>
</g>
</g>
</svg>
