<?xml version="1.0" encoding="UTF-8" standalone="no"?>
<!DOCTYPE svg PUBLIC "-//W3C//DTD SVG 1.1//EN"
 "http://www.w3.org/Graphics/SVG/1.1/DTD/svg11.dtd">
<!-- Generated by graphviz version 2.36.0 (20140111.2315)
 -->
<!-- Title: g Pages: 1 -->
<svg width="206pt" height="120pt"
 viewBox="0.00 0.00 206.00 120.00" xmlns="http://www.w3.org/2000/svg" xmlns:xlink="http://www.w3.org/1999/xlink">
<g id="graph0" class="graph" transform="scale(1 1) rotate(0) translate(4 116)">
<title>g</title>
<polygon fill="white" stroke="none" points="-4,4 -4,-116 202,-116 202,4 -4,4"/>
<!-- x -->
<g id="node1" class="node"><title>x</title>
<polygon fill="none" stroke="black" points="44,-75 44,-111 154,-111 154,-75 44,-75"/>
<text text-anchor="middle" x="54" y="-89.2" font-family="Times,serif" font-size="16.00"> </text>
<polyline fill="none" stroke="black" points="64,-75 64,-111 "/>
<text text-anchor="middle" x="76.5" y="-89.2" font-family="Times,serif" font-size="16.00">3</text>
<polyline fill="none" stroke="black" points="89,-75 89,-111 "/>
<text text-anchor="middle" x="99" y="-89.2" font-family="Times,serif" font-size="16.00"> </text>
<polyline fill="none" stroke="black" points="109,-75 109,-111 "/>
<text text-anchor="middle" x="121.5" y="-89.2" font-family="Times,serif" font-size="16.00">5</text>
<polyline fill="none" stroke="black" points="134,-75 134,-111 "/>
<text text-anchor="middle" x="144" y="-89.2" font-family="Times,serif" font-size="16.00"> </text>
</g>
<!-- c -->
<g id="node2" class="node"><title>c</title>
<polygon fill="none" stroke="black" points="0,-1 0,-37 54,-37 54,-1 0,-1"/>
<text text-anchor="middle" x="13.5" y="-15.2" font-family="Times,serif" font-size="16.00">1</text>
<polyline fill="none" stroke="black" points="27,-1 27,-37 "/>
<text text-anchor="middle" x="40.5" y="-15.2" font-family="Times,serif" font-size="16.00">2</text>
</g>
<!-- x&#45;&gt;c -->
<g id="edge1" class="edge"><title>x:c&#45;&gt;c:n</title>
<path fill="none" stroke="black" d="M54,-74C54,-58.0625 36.8547,-57.3652 29.8895,-47.6191"/>
<polygon fill="black" stroke="black" points="33.229,-46.5703 27,-38 26.5249,-48.5842 33.229,-46.5703"/>
</g>
<!-- d -->
<g id="node3" class="node"><title>d</title>
<polygon fill="none" stroke="black" points="72,-1 72,-37 126,-37 126,-1 72,-1"/>
<text text-anchor="middle" x="85.5" y="-15.2" font-family="Times,serif" font-size="16.00">3</text>
<polyline fill="none" stroke="black" points="99,-1 99,-37 "/>
<text text-anchor="middle" x="112.5" y="-15.2" font-family="Times,serif" font-size="16.00">4</text>
</g>
<!-- x&#45;&gt;d -->
<g id="edge2" class="edge"><title>x:d&#45;&gt;d:n</title>
<path fill="none" stroke="black" d="M99,-74C99,-62 99,-56.75 99,-48.125"/>
<polygon fill="black" stroke="black" points="102.5,-48 99,-38 95.5001,-48 102.5,-48"/>
</g>
<!-- e -->
<g id="node4" class="node"><title>e</title>
<polygon fill="none" stroke="black" points="144,-1 144,-37 198,-37 198,-1 144,-1"/>
<text text-anchor="middle" x="157.5" y="-15.2" font-family="Times,serif" font-size="16.00">5</text>
<polyline fill="none" stroke="black" points="171,-1 171,-37 "/>
<text text-anchor="middle" x="184.5" y="-15.2" font-family="Times,serif" font-size="16.00">6</text>
</g>
<!-- x&#45;&gt;e -->
<g id="edge3" class="edge"><title>x:e&#45;&gt;e:n</title>
<path fill="none" stroke="black" d="M144,-74C144,-58.0625 161.145,-57.3652 168.111,-47.6191"/>
<polygon fill="black" stroke="black" points="171.475,-48.5842 171,-38 164.771,-46.5703 171.475,-48.5842"/>
</g>
</g>
</svg>
