<?xml version="1.0" encoding="UTF-8" standalone="no"?>
<!DOCTYPE svg PUBLIC "-//W3C//DTD SVG 1.1//EN"
 "http://www.w3.org/Graphics/SVG/1.1/DTD/svg11.dtd">
<!-- Generated by graphviz version 2.36.0 (20140111.2315)
 -->
<!-- Title: g Pages: 1 -->
<svg width="370pt" height="120pt"
 viewBox="0.00 0.00 370.00 120.00" xmlns="http://www.w3.org/2000/svg" xmlns:xlink="http://www.w3.org/1999/xlink">
<g id="graph0" class="graph" transform="scale(1 1) rotate(0) translate(4 116)">
<title>g</title>
<polygon fill="white" stroke="none" points="-4,4 -4,-116 366,-116 366,4 -4,4"/>
<!-- x -->
<g id="node1" class="node"><title>x</title>
<polygon fill="none" stroke="black" points="134,-75 134,-111 300,-111 300,-75 134,-75"/>
<text text-anchor="middle" x="144" y="-89.2" font-family="Times,serif" font-size="16.00"> </text>
<polyline fill="none" stroke="black" points="154,-75 154,-111 "/>
<text text-anchor="middle" x="166.5" y="-89.2" font-family="Times,serif" font-size="16.00">6</text>
<polyline fill="none" stroke="black" points="179,-75 179,-111 "/>
<text text-anchor="middle" x="189" y="-89.2" font-family="Times,serif" font-size="16.00"> </text>
<polyline fill="none" stroke="black" points="199,-75 199,-111 "/>
<text text-anchor="middle" x="215.5" y="-89.2" font-family="Times,serif" font-size="16.00">10</text>
<polyline fill="none" stroke="black" points="232,-75 232,-111 "/>
<text text-anchor="middle" x="242" y="-89.2" font-family="Times,serif" font-size="16.00"> </text>
<polyline fill="none" stroke="black" points="252,-75 252,-111 "/>
<text text-anchor="middle" x="266" y="-89.2" font-family="Times,serif" font-size="16.00">...</text>
<polyline fill="none" stroke="black" points="280,-75 280,-111 "/>
<text text-anchor="middle" x="290" y="-89.2" font-family="Times,serif" font-size="16.00"> </text>
</g>
<!-- y -->
<g id="node2" class="node"><title>y</title>
<polygon fill="none" stroke="black" points="0,-1 0,-37 100,-37 100,-1 0,-1"/>
<text text-anchor="middle" x="12.5" y="-15.2" font-family="Times,serif" font-size="16.00">1</text>
<polyline fill="none" stroke="black" points="25,-1 25,-37 "/>
<text text-anchor="middle" x="37.5" y="-15.2" font-family="Times,serif" font-size="16.00">2</text>
<polyline fill="none" stroke="black" points="50,-1 50,-37 "/>
<text text-anchor="middle" x="62.5" y="-15.2" font-family="Times,serif" font-size="16.00">3</text>
<polyline fill="none" stroke="black" points="75,-1 75,-37 "/>
<text text-anchor="middle" x="87.5" y="-15.2" font-family="Times,serif" font-size="16.00">4</text>
</g>
<!-- x&#45;&gt;y -->
<g id="edge1" class="edge"><title>x:y&#45;&gt;y:n</title>
<path fill="none" stroke="black" d="M144,-74C144,-33.2825 66.1319,-73.921 52.1399,-47.8222"/>
<polygon fill="black" stroke="black" points="55.5486,-47.0257 50,-38 48.709,-48.5159 55.5486,-47.0257"/>
</g>
<!-- z -->
<g id="node3" class="node"><title>z</title>
<polygon fill="none" stroke="black" points="118,-1 118,-37 218,-37 218,-1 118,-1"/>
<text text-anchor="middle" x="130.5" y="-15.2" font-family="Times,serif" font-size="16.00">6</text>
<polyline fill="none" stroke="black" points="143,-1 143,-37 "/>
<text text-anchor="middle" x="155.5" y="-15.2" font-family="Times,serif" font-size="16.00">7</text>
<polyline fill="none" stroke="black" points="168,-1 168,-37 "/>
<text text-anchor="middle" x="180.5" y="-15.2" font-family="Times,serif" font-size="16.00">8</text>
<polyline fill="none" stroke="black" points="193,-1 193,-37 "/>
<text text-anchor="middle" x="205.5" y="-15.2" font-family="Times,serif" font-size="16.00">9</text>
</g>
<!-- x&#45;&gt;z -->
<g id="edge2" class="edge"><title>x:z&#45;&gt;z:n</title>
<path fill="none" stroke="black" d="M189,-74C189,-59.5287 176.183,-57.0019 170.575,-47.7562"/>
<polygon fill="black" stroke="black" points="173.936,-46.7757 168,-38 167.168,-48.5621 173.936,-46.7757"/>
</g>
<!-- w -->
<g id="node4" class="node"><title>w</title>
<polygon fill="none" stroke="black" points="236,-1 236,-37 290,-37 290,-1 236,-1"/>
<text text-anchor="middle" x="263" y="-15.2" font-family="Times,serif" font-size="16.00">...</text>
</g>
<!-- x&#45;&gt;w -->
<g id="edge3" class="edge"><title>x:w&#45;&gt;w:n</title>
<path fill="none" stroke="black" d="M242,-74C242,-59.5287 254.817,-57.0019 260.425,-47.7562"/>
<polygon fill="black" stroke="black" points="263.832,-48.5621 263,-38 257.064,-46.7757 263.832,-48.5621"/>
</g>
<!-- a -->
<g id="node5" class="node"><title>a</title>
<polygon fill="none" stroke="black" points="308,-1 308,-37 362,-37 362,-1 308,-1"/>
<text text-anchor="middle" x="335" y="-15.2" font-family="Times,serif" font-size="16.00">...</text>
</g>
<!-- x&#45;&gt;a -->
<g id="edge4" class="edge"><title>x:a&#45;&gt;a:n</title>
<path fill="none" stroke="black" d="M290,-74C290,-52.5896 321.446,-59.716 331.764,-47.6692"/>
<polygon fill="black" stroke="black" points="335.145,-48.5938 335,-38 328.507,-46.372 335.145,-48.5938"/>
</g>
</g>
</svg>
