<?xml version="1.0" encoding="UTF-8" standalone="no"?>
<!DOCTYPE svg PUBLIC "-//W3C//DTD SVG 1.1//EN"
 "http://www.w3.org/Graphics/SVG/1.1/DTD/svg11.dtd">
<!-- Generated by graphviz version 2.36.0 (20140111.2315)
 -->
<!-- Title: g Pages: 1 -->
<svg width="155pt" height="120pt"
 viewBox="0.00 0.00 155.00 120.00" xmlns="http://www.w3.org/2000/svg" xmlns:xlink="http://www.w3.org/1999/xlink">
<g id="graph0" class="graph" transform="scale(1 1) rotate(0) translate(4 116)">
<title>g</title>
<polygon fill="white" stroke="none" points="-4,4 -4,-116 151,-116 151,4 -4,4"/>
<!-- x -->
<g id="node1" class="node"><title>x</title>
<polygon fill="none" stroke="black" points="35.5,-75 35.5,-111 100.5,-111 100.5,-75 35.5,-75"/>
<text text-anchor="middle" x="45.5" y="-89.2" font-family="Times,serif" font-size="16.00"> </text>
<polyline fill="none" stroke="black" points="55.5,-75 55.5,-111 "/>
<text text-anchor="middle" x="68" y="-89.2" font-family="Times,serif" font-size="16.00">3</text>
<polyline fill="none" stroke="black" points="80.5,-75 80.5,-111 "/>
<text text-anchor="middle" x="90.5" y="-89.2" font-family="Times,serif" font-size="16.00"> </text>
</g>
<!-- y -->
<g id="node2" class="node"><title>y</title>
<polygon fill="none" stroke="black" points="0,-1 0,-37 54,-37 54,-1 0,-1"/>
<text text-anchor="middle" x="13.5" y="-15.2" font-family="Times,serif" font-size="16.00">1</text>
<polyline fill="none" stroke="black" points="27,-1 27,-37 "/>
<text text-anchor="middle" x="40.5" y="-15.2" font-family="Times,serif" font-size="16.00">2</text>
</g>
<!-- x&#45;&gt;y -->
<g id="edge1" class="edge"><title>x:y&#45;&gt;y:n</title>
<path fill="none" stroke="black" d="M45,-74C45,-60.1643 34.2323,-56.8963 29.3532,-47.8491"/>
<polygon fill="black" stroke="black" points="32.7281,-46.9129 27,-38 25.9197,-48.5396 32.7281,-46.9129"/>
</g>
<!-- z -->
<g id="node3" class="node"><title>z</title>
<polygon fill="none" stroke="black" points="72.5,-1 72.5,-37 147.5,-37 147.5,-1 72.5,-1"/>
<text text-anchor="middle" x="85" y="-15.2" font-family="Times,serif" font-size="16.00">3</text>
<polyline fill="none" stroke="black" points="97.5,-1 97.5,-37 "/>
<text text-anchor="middle" x="110" y="-15.2" font-family="Times,serif" font-size="16.00">4</text>
<polyline fill="none" stroke="black" points="122.5,-1 122.5,-37 "/>
<text text-anchor="middle" x="135" y="-15.2" font-family="Times,serif" font-size="16.00">5</text>
</g>
<!-- x&#45;&gt;z -->
<g id="edge2" class="edge"><title>x:z&#45;&gt;z:n</title>
<path fill="none" stroke="black" d="M91,-74C91,-60.0072 102.366,-56.9467 107.516,-47.9075"/>
<polygon fill="black" stroke="black" points="110.963,-48.551 110,-38 104.173,-46.8486 110.963,-48.551"/>
</g>
</g>
</svg>
