<?xml version="1.0" encoding="UTF-8" standalone="no"?>
<!DOCTYPE svg PUBLIC "-//W3C//DTD SVG 1.1//EN"
 "http://www.w3.org/Graphics/SVG/1.1/DTD/svg11.dtd">
<!-- Generated by graphviz version 2.36.0 (20140111.2315)
 -->
<!-- Title: g Pages: 1 -->
<svg width="155pt" height="120pt"
 viewBox="0.00 0.00 155.00 120.00" xmlns="http://www.w3.org/2000/svg" xmlns:xlink="http://www.w3.org/1999/xlink">
<g id="graph0" class="graph" transform="scale(1 1) rotate(0) translate(4 116)">
<title>g</title>
<polygon fill="white" stroke="none" points="-4,4 -4,-116 151,-116 151,4 -4,4"/>
<!-- x -->
<g id="node1" class="node"><title>x</title>
<polygon fill="none" stroke="black" points="45.5,-75 45.5,-111 110.5,-111 110.5,-75 45.5,-75"/>
<text text-anchor="middle" x="55.5" y="-89.2" font-family="Times,serif" font-size="16.00"> </text>
<polyline fill="none" stroke="black" points="65.5,-75 65.5,-111 "/>
<text text-anchor="middle" x="78" y="-89.2" font-family="Times,serif" font-size="16.00">5</text>
<polyline fill="none" stroke="black" points="90.5,-75 90.5,-111 "/>
<text text-anchor="middle" x="100.5" y="-89.2" font-family="Times,serif" font-size="16.00"> </text>
</g>
<!-- c -->
<g id="node2" class="node"><title>c</title>
<polygon fill="none" stroke="black" points="-0.5,-1 -0.5,-37 74.5,-37 74.5,-1 -0.5,-1"/>
<text text-anchor="middle" x="12" y="-15.2" font-family="Times,serif" font-size="16.00">1</text>
<polyline fill="none" stroke="black" points="24.5,-1 24.5,-37 "/>
<text text-anchor="middle" x="37" y="-15.2" font-family="Times,serif" font-size="16.00">2</text>
<polyline fill="none" stroke="black" points="49.5,-1 49.5,-37 "/>
<text text-anchor="middle" x="62" y="-15.2" font-family="Times,serif" font-size="16.00">3</text>
</g>
<!-- x&#45;&gt;c -->
<g id="edge1" class="edge"><title>x:c&#45;&gt;c:n</title>
<path fill="none" stroke="black" d="M55,-74C55,-60.1643 44.2323,-56.8963 39.3532,-47.8491"/>
<polygon fill="black" stroke="black" points="42.7281,-46.9129 37,-38 35.9197,-48.5396 42.7281,-46.9129"/>
</g>
<!-- d -->
<g id="node3" class="node"><title>d</title>
<polygon fill="none" stroke="black" points="93,-1 93,-37 147,-37 147,-1 93,-1"/>
<text text-anchor="middle" x="106.5" y="-15.2" font-family="Times,serif" font-size="16.00">5</text>
<polyline fill="none" stroke="black" points="120,-1 120,-37 "/>
<text text-anchor="middle" x="133.5" y="-15.2" font-family="Times,serif" font-size="16.00">6</text>
</g>
<!-- x&#45;&gt;d -->
<g id="edge2" class="edge"><title>x:d&#45;&gt;d:n</title>
<path fill="none" stroke="black" d="M101,-74C101,-60.0072 112.366,-56.9467 117.516,-47.9075"/>
<polygon fill="black" stroke="black" points="120.963,-48.551 120,-38 114.173,-46.8486 120.963,-48.551"/>
</g>
</g>
</svg>
