<?xml version="1.0" encoding="UTF-8" standalone="no"?>
<!DOCTYPE svg PUBLIC "-//W3C//DTD SVG 1.1//EN"
 "http://www.w3.org/Graphics/SVG/1.1/DTD/svg11.dtd">
<!-- Generated by graphviz version 2.36.0 (20140111.2315)
 -->
<!-- Title: g Pages: 1 -->
<svg width="134pt" height="120pt"
 viewBox="0.00 0.00 134.00 120.00" xmlns="http://www.w3.org/2000/svg" xmlns:xlink="http://www.w3.org/1999/xlink">
<g id="graph0" class="graph" transform="scale(1 1) rotate(0) translate(4 116)">
<title>g</title>
<polygon fill="white" stroke="none" points="-4,4 -4,-116 130,-116 130,4 -4,4"/>
<!-- x -->
<g id="node1" class="node"><title>x</title>
<polygon fill="none" stroke="black" points="30.5,-75 30.5,-111 95.5,-111 95.5,-75 30.5,-75"/>
<text text-anchor="middle" x="40.5" y="-89.2" font-family="Times,serif" font-size="16.00"> </text>
<polyline fill="none" stroke="black" points="50.5,-75 50.5,-111 "/>
<text text-anchor="middle" x="63" y="-89.2" font-family="Times,serif" font-size="16.00">3</text>
<polyline fill="none" stroke="black" points="75.5,-75 75.5,-111 "/>
<text text-anchor="middle" x="85.5" y="-89.2" font-family="Times,serif" font-size="16.00"> </text>
</g>
<!-- c -->
<g id="node2" class="node"><title>c</title>
<polygon fill="none" stroke="black" points="0,-1 0,-37 54,-37 54,-1 0,-1"/>
<text text-anchor="middle" x="13.5" y="-15.2" font-family="Times,serif" font-size="16.00">1</text>
<polyline fill="none" stroke="black" points="27,-1 27,-37 "/>
<text text-anchor="middle" x="40.5" y="-15.2" font-family="Times,serif" font-size="16.00">2</text>
</g>
<!-- x&#45;&gt;c -->
<g id="edge1" class="edge"><title>x:c&#45;&gt;c:n</title>
<path fill="none" stroke="black" d="M40,-74C40,-60.9758 32.3796,-56.764 28.8076,-47.8707"/>
<polygon fill="black" stroke="black" points="32.2442,-47.2059 27,-38 25.3587,-48.4669 32.2442,-47.2059"/>
</g>
<!-- d -->
<g id="node3" class="node"><title>d</title>
<polygon fill="none" stroke="black" points="72,-1 72,-37 126,-37 126,-1 72,-1"/>
<text text-anchor="middle" x="85.5" y="-15.2" font-family="Times,serif" font-size="16.00">3</text>
<polyline fill="none" stroke="black" points="99,-1 99,-37 "/>
<text text-anchor="middle" x="112.5" y="-15.2" font-family="Times,serif" font-size="16.00">4</text>
</g>
<!-- x&#45;&gt;d -->
<g id="edge2" class="edge"><title>x:d&#45;&gt;d:n</title>
<path fill="none" stroke="black" d="M86,-74C86,-60.9758 93.6204,-56.764 97.1924,-47.8707"/>
<polygon fill="black" stroke="black" points="100.641,-48.4669 99,-38 93.7558,-47.2059 100.641,-48.4669"/>
</g>
</g>
</svg>
