<?xml version="1.0" encoding="UTF-8" standalone="no"?>
<!DOCTYPE svg PUBLIC "-//W3C//DTD SVG 1.1//EN"
 "http://www.w3.org/Graphics/SVG/1.1/DTD/svg11.dtd">
<!-- Generated by graphviz version 2.36.0 (20140111.2315)
 -->
<!-- Title: g Pages: 1 -->
<svg width="200pt" height="194pt"
 viewBox="0.00 0.00 200.00 194.00" xmlns="http://www.w3.org/2000/svg" xmlns:xlink="http://www.w3.org/1999/xlink">
<g id="graph0" class="graph" transform="scale(1 1) rotate(0) translate(4 190)">
<title>g</title>
<polygon fill="white" stroke="none" points="-4,4 -4,-190 196,-190 196,4 -4,4"/>
<!-- x -->
<g id="node1" class="node"><title>x</title>
<polygon fill="none" stroke="black" points="25.5,-149 25.5,-185 166.5,-185 166.5,-149 25.5,-149"/>
<text text-anchor="middle" x="96" y="-163.2" font-family="Times,serif" font-size="16.00">Map (specification)</text>
</g>
<!-- y -->
<g id="node2" class="node"><title>y</title>
<polygon fill="none" stroke="black" points="3.5,-75 3.5,-111 188.5,-111 188.5,-75 3.5,-75"/>
<text text-anchor="middle" x="96" y="-89.2" font-family="Times,serif" font-size="16.00">B&#45;tree (algebraic datatype)</text>
</g>
<!-- x&#45;&gt;y -->
<g id="edge1" class="edge"><title>x&#45;&gt;y:n</title>
<path fill="none" stroke="black" d="M96,-148.975C96,-141.169 96,-131.561 96,-122.106"/>
<polygon fill="black" stroke="black" points="99.5001,-122 96,-112 92.5001,-122 99.5001,-122"/>
</g>
<!-- z -->
<g id="node3" class="node"><title>z</title>
<polygon fill="none" stroke="black" points="-1,-1 -1,-37 193,-37 193,-1 -1,-1"/>
<text text-anchor="middle" x="96" y="-15.2" font-family="Times,serif" font-size="16.00">B&#45;tree (blocks and pointers)</text>
</g>
<!-- y&#45;&gt;z -->
<g id="edge2" class="edge"><title>y&#45;&gt;z:n</title>
<path fill="none" stroke="black" d="M96,-74.9754C96,-67.1689 96,-57.561 96,-48.1065"/>
<polygon fill="black" stroke="black" points="99.5001,-48 96,-38 92.5001,-48 99.5001,-48"/>
</g>
</g>
</svg>
