<?xml version="1.0" encoding="UTF-8" standalone="no"?>
<!DOCTYPE svg PUBLIC "-//W3C//DTD SVG 1.1//EN"
 "http://www.w3.org/Graphics/SVG/1.1/DTD/svg11.dtd">
<!-- Generated by graphviz version 2.36.0 (20140111.2315)
 -->
<!-- Title: g Pages: 1 -->
<svg width="142pt" height="120pt"
 viewBox="0.00 0.00 142.00 120.00" xmlns="http://www.w3.org/2000/svg" xmlns:xlink="http://www.w3.org/1999/xlink">
<g id="graph0" class="graph" transform="scale(1 1) rotate(0) translate(4 116)">
<title>g</title>
<polygon fill="white" stroke="none" points="-4,4 -4,-116 138,-116 138,4 -4,4"/>
<!-- z -->
<g id="node1" class="node"><title>z</title>
<polygon fill="none" stroke="black" points="0,-75 0,-111 134,-111 134,-75 0,-75"/>
<text text-anchor="middle" x="14" y="-89.2" font-family="Times,serif" font-size="16.00">...</text>
<polyline fill="none" stroke="black" points="28,-75 28,-111 "/>
<text text-anchor="middle" x="40.5" y="-89.2" font-family="Times,serif" font-size="16.00">5</text>
<polyline fill="none" stroke="black" points="53,-75 53,-111 "/>
<text text-anchor="middle" x="63" y="-89.2" font-family="Times,serif" font-size="16.00"> </text>
<polyline fill="none" stroke="black" points="73,-75 73,-111 "/>
<text text-anchor="middle" x="89.5" y="-89.2" font-family="Times,serif" font-size="16.00">10</text>
<polyline fill="none" stroke="black" points="106,-75 106,-111 "/>
<text text-anchor="middle" x="120" y="-89.2" font-family="Times,serif" font-size="16.00">...</text>
</g>
<!-- b -->
<g id="node2" class="node"><title>b</title>
<polygon fill="none" stroke="black" points="13,-1 13,-37 113,-37 113,-1 13,-1"/>
<text text-anchor="middle" x="25.5" y="-15.2" font-family="Times,serif" font-size="16.00">5</text>
<polyline fill="none" stroke="black" points="38,-1 38,-37 "/>
<text text-anchor="middle" x="50.5" y="-15.2" font-family="Times,serif" font-size="16.00">6</text>
<polyline fill="none" stroke="black" points="63,-1 63,-37 "/>
<text text-anchor="middle" x="75.5" y="-15.2" font-family="Times,serif" font-size="16.00">7</text>
<polyline fill="none" stroke="black" points="88,-1 88,-37 "/>
<text text-anchor="middle" x="100.5" y="-15.2" font-family="Times,serif" font-size="16.00">8</text>
</g>
<!-- z&#45;&gt;b -->
<g id="edge1" class="edge"><title>z:p1&#45;&gt;b:n</title>
<path fill="none" stroke="black" d="M63,-74C63,-62 63,-56.75 63,-48.125"/>
<polygon fill="black" stroke="black" points="66.5001,-48 63,-38 59.5001,-48 66.5001,-48"/>
</g>
</g>
</svg>
