<?xml version="1.0" encoding="UTF-8" standalone="no"?>
<!DOCTYPE svg PUBLIC "-//W3C//DTD SVG 1.1//EN"
 "http://www.w3.org/Graphics/SVG/1.1/DTD/svg11.dtd">
<!-- Generated by graphviz version 2.36.0 (20140111.2315)
 -->
<!-- Title: g Pages: 1 -->
<svg width="290pt" height="120pt"
 viewBox="0.00 0.00 290.00 120.00" xmlns="http://www.w3.org/2000/svg" xmlns:xlink="http://www.w3.org/1999/xlink">
<g id="graph0" class="graph" transform="scale(1 1) rotate(0) translate(4 116)">
<title>g</title>
<polygon fill="white" stroke="none" points="-4,4 -4,-116 286,-116 286,4 -4,4"/>
<!-- z -->
<g id="node1" class="node"><title>z</title>
<polygon fill="none" stroke="black" points="0,-75 0,-111 174,-111 174,-75 0,-75"/>
<text text-anchor="middle" x="10" y="-89.2" font-family="Times,serif" font-size="16.00">.</text>
<polyline fill="none" stroke="black" points="20,-75 20,-111 "/>
<text text-anchor="middle" x="32.5" y="-89.2" font-family="Times,serif" font-size="16.00">3</text>
<polyline fill="none" stroke="black" points="45,-75 45,-111 "/>
<text text-anchor="middle" x="55" y="-89.2" font-family="Times,serif" font-size="16.00">.</text>
<polyline fill="none" stroke="black" points="65,-75 65,-111 "/>
<text text-anchor="middle" x="77.5" y="-89.2" font-family="Times,serif" font-size="16.00">5</text>
<polyline fill="none" stroke="black" points="90,-75 90,-111 "/>
<text text-anchor="middle" x="105.5" y="-89.2" font-family="Times,serif" font-size="16.00">[ ]</text>
<polyline fill="none" stroke="black" points="121,-75 121,-111 "/>
<text text-anchor="middle" x="137.5" y="-89.2" font-family="Times,serif" font-size="16.00">10</text>
<polyline fill="none" stroke="black" points="154,-75 154,-111 "/>
<text text-anchor="middle" x="164" y="-89.2" font-family="Times,serif" font-size="16.00">.</text>
</g>
<!-- w -->
<g id="node2" class="node"><title>w</title>
<polygon fill="none" stroke="black" points="192,-75 192,-111 246,-111 246,-75 192,-75"/>
<text text-anchor="middle" x="219" y="-89.2" font-family="Times,serif" font-size="16.00">7</text>
</g>
<!-- b -->
<g id="node3" class="node"><title>b</title>
<polygon fill="none" stroke="black" points="156,-1 156,-37 210,-37 210,-1 156,-1"/>
<text text-anchor="middle" x="169.5" y="-15.2" font-family="Times,serif" font-size="16.00">5</text>
<polyline fill="none" stroke="black" points="183,-1 183,-37 "/>
<text text-anchor="middle" x="196.5" y="-15.2" font-family="Times,serif" font-size="16.00">6</text>
</g>
<!-- w&#45;&gt;b -->
<g id="edge1" class="edge"><title>w:p1&#45;&gt;b:n</title>
<path fill="none" stroke="black" d="M199.315,-74.5202C193.011,-67.1067 186.986,-57.9741 184.367,-48.0937"/>
<polygon fill="black" stroke="black" points="187.811,-47.4397 183,-38 180.874,-48.3793 187.811,-47.4397"/>
</g>
<!-- c -->
<g id="node4" class="node"><title>c</title>
<polygon fill="none" stroke="black" points="228,-1 228,-37 282,-37 282,-1 228,-1"/>
<text text-anchor="middle" x="241.5" y="-15.2" font-family="Times,serif" font-size="16.00">7</text>
<polyline fill="none" stroke="black" points="255,-1 255,-37 "/>
<text text-anchor="middle" x="268.5" y="-15.2" font-family="Times,serif" font-size="16.00">8</text>
</g>
<!-- w&#45;&gt;c -->
<g id="edge2" class="edge"><title>w:p3&#45;&gt;c:n</title>
<path fill="none" stroke="black" d="M238.685,-74.5202C244.989,-67.1067 251.014,-57.9741 253.633,-48.0937"/>
<polygon fill="black" stroke="black" points="257.126,-48.3793 255,-38 250.189,-47.4397 257.126,-48.3793"/>
</g>
</g>
</svg>
