<?xml version="1.0" encoding="UTF-8" standalone="no"?>
<!DOCTYPE svg PUBLIC "-//W3C//DTD SVG 1.1//EN"
 "http://www.w3.org/Graphics/SVG/1.1/DTD/svg11.dtd">
<!-- Generated by graphviz version 2.36.0 (20140111.2315)
 -->
<!-- Title: g Pages: 1 -->
<svg width="186pt" height="120pt"
 viewBox="0.00 0.00 186.00 120.00" xmlns="http://www.w3.org/2000/svg" xmlns:xlink="http://www.w3.org/1999/xlink">
<g id="graph0" class="graph" transform="scale(1 1) rotate(0) translate(4 116)">
<title>g</title>
<polygon fill="white" stroke="none" points="-4,4 -4,-116 182,-116 182,4 -4,4"/>
<!-- z -->
<g id="node1" class="node"><title>z</title>
<polygon fill="none" stroke="black" points="-0.5,-75 -0.5,-111 178.5,-111 178.5,-75 -0.5,-75"/>
<text text-anchor="middle" x="13.5" y="-89.2" font-family="Times,serif" font-size="16.00">...</text>
<polyline fill="none" stroke="black" points="27.5,-75 27.5,-111 "/>
<text text-anchor="middle" x="40" y="-89.2" font-family="Times,serif" font-size="16.00">5</text>
<polyline fill="none" stroke="black" points="52.5,-75 52.5,-111 "/>
<text text-anchor="middle" x="62.5" y="-89.2" font-family="Times,serif" font-size="16.00"> </text>
<polyline fill="none" stroke="black" points="72.5,-75 72.5,-111 "/>
<text text-anchor="middle" x="85" y="-89.2" font-family="Times,serif" font-size="16.00">7</text>
<polyline fill="none" stroke="black" points="97.5,-75 97.5,-111 "/>
<text text-anchor="middle" x="107.5" y="-89.2" font-family="Times,serif" font-size="16.00"> </text>
<polyline fill="none" stroke="black" points="117.5,-75 117.5,-111 "/>
<text text-anchor="middle" x="134" y="-89.2" font-family="Times,serif" font-size="16.00">10</text>
<polyline fill="none" stroke="black" points="150.5,-75 150.5,-111 "/>
<text text-anchor="middle" x="164.5" y="-89.2" font-family="Times,serif" font-size="16.00">...</text>
</g>
<!-- b -->
<g id="node2" class="node"><title>b</title>
<polygon fill="none" stroke="black" points="22,-1 22,-37 76,-37 76,-1 22,-1"/>
<text text-anchor="middle" x="35.5" y="-15.2" font-family="Times,serif" font-size="16.00">5</text>
<polyline fill="none" stroke="black" points="49,-1 49,-37 "/>
<text text-anchor="middle" x="62.5" y="-15.2" font-family="Times,serif" font-size="16.00">6</text>
</g>
<!-- z&#45;&gt;b -->
<g id="edge1" class="edge"><title>z:p1&#45;&gt;b:n</title>
<path fill="none" stroke="black" d="M62,-74C62,-60.9758 54.3796,-56.764 50.8076,-47.8707"/>
<polygon fill="black" stroke="black" points="54.2442,-47.2059 49,-38 47.3587,-48.4669 54.2442,-47.2059"/>
</g>
<!-- c -->
<g id="node3" class="node"><title>c</title>
<polygon fill="none" stroke="black" points="94,-1 94,-37 148,-37 148,-1 94,-1"/>
<text text-anchor="middle" x="107.5" y="-15.2" font-family="Times,serif" font-size="16.00">7</text>
<polyline fill="none" stroke="black" points="121,-1 121,-37 "/>
<text text-anchor="middle" x="134.5" y="-15.2" font-family="Times,serif" font-size="16.00">8</text>
</g>
<!-- z&#45;&gt;c -->
<g id="edge2" class="edge"><title>z:p3&#45;&gt;c:n</title>
<path fill="none" stroke="black" d="M108,-74C108,-60.9758 115.62,-56.764 119.192,-47.8707"/>
<polygon fill="black" stroke="black" points="122.641,-48.4669 121,-38 115.756,-47.2059 122.641,-48.4669"/>
</g>
</g>
</svg>
