<?xml version="1.0" encoding="UTF-8" standalone="no"?>
<!DOCTYPE svg PUBLIC "-//W3C//DTD SVG 1.1//EN"
 "http://www.w3.org/Graphics/SVG/1.1/DTD/svg11.dtd">
<!-- Generated by graphviz version 2.36.0 (20140111.2315)
 -->
<!-- Title: g Pages: 1 -->
<svg width="216pt" height="120pt"
 viewBox="0.00 0.00 216.00 120.00" xmlns="http://www.w3.org/2000/svg" xmlns:xlink="http://www.w3.org/1999/xlink">
<g id="graph0" class="graph" transform="scale(1 1) rotate(0) translate(4 116)">
<title>g</title>
<polygon fill="white" stroke="none" points="-4,4 -4,-116 212,-116 212,4 -4,4"/>
<!-- z -->
<g id="node1" class="node"><title>z</title>
<polygon fill="none" stroke="black" points="0,-75 0,-111 208,-111 208,-75 0,-75"/>
<text text-anchor="middle" x="10" y="-89.2" font-family="Times,serif" font-size="16.00">.</text>
<polyline fill="none" stroke="black" points="20,-75 20,-111 "/>
<text text-anchor="middle" x="32.5" y="-89.2" font-family="Times,serif" font-size="16.00">3</text>
<polyline fill="none" stroke="black" points="45,-75 45,-111 "/>
<text text-anchor="middle" x="55" y="-89.2" font-family="Times,serif" font-size="16.00">.</text>
<polyline fill="none" stroke="black" points="65,-75 65,-111 "/>
<text text-anchor="middle" x="77.5" y="-89.2" font-family="Times,serif" font-size="16.00">5</text>
<polyline fill="none" stroke="black" points="90,-75 90,-111 "/>
<text text-anchor="middle" x="100" y="-89.2" font-family="Times,serif" font-size="16.00"> </text>
<polyline fill="none" stroke="black" points="110,-75 110,-111 "/>
<text text-anchor="middle" x="122.5" y="-89.2" font-family="Times,serif" font-size="16.00">7</text>
<polyline fill="none" stroke="black" points="135,-75 135,-111 "/>
<text text-anchor="middle" x="145" y="-89.2" font-family="Times,serif" font-size="16.00"> </text>
<polyline fill="none" stroke="black" points="155,-75 155,-111 "/>
<text text-anchor="middle" x="171.5" y="-89.2" font-family="Times,serif" font-size="16.00">10</text>
<polyline fill="none" stroke="black" points="188,-75 188,-111 "/>
<text text-anchor="middle" x="198" y="-89.2" font-family="Times,serif" font-size="16.00">.</text>
</g>
<!-- b -->
<g id="node2" class="node"><title>b</title>
<polygon fill="none" stroke="black" points="60,-1 60,-37 114,-37 114,-1 60,-1"/>
<text text-anchor="middle" x="73.5" y="-15.2" font-family="Times,serif" font-size="16.00">5</text>
<polyline fill="none" stroke="black" points="87,-1 87,-37 "/>
<text text-anchor="middle" x="100.5" y="-15.2" font-family="Times,serif" font-size="16.00">6</text>
</g>
<!-- z&#45;&gt;b -->
<g id="edge1" class="edge"><title>z:p1&#45;&gt;b:n</title>
<path fill="none" stroke="black" d="M100,-74C100,-60.9758 92.3796,-56.764 88.8076,-47.8707"/>
<polygon fill="black" stroke="black" points="92.2442,-47.2059 87,-38 85.3587,-48.4669 92.2442,-47.2059"/>
</g>
<!-- c -->
<g id="node3" class="node"><title>c</title>
<polygon fill="none" stroke="black" points="132,-1 132,-37 186,-37 186,-1 132,-1"/>
<text text-anchor="middle" x="145.5" y="-15.2" font-family="Times,serif" font-size="16.00">7</text>
<polyline fill="none" stroke="black" points="159,-1 159,-37 "/>
<text text-anchor="middle" x="172.5" y="-15.2" font-family="Times,serif" font-size="16.00">8</text>
</g>
<!-- z&#45;&gt;c -->
<g id="edge2" class="edge"><title>z:p3&#45;&gt;c:n</title>
<path fill="none" stroke="black" d="M145,-74C145,-60.8563 153.207,-56.7995 157.053,-47.9153"/>
<polygon fill="black" stroke="black" points="160.508,-48.487 159,-38 153.639,-47.1384 160.508,-48.487"/>
</g>
</g>
</svg>
