<?xml version="1.0" encoding="UTF-8" standalone="no"?>
<!DOCTYPE svg PUBLIC "-//W3C//DTD SVG 1.1//EN"
 "http://www.w3.org/Graphics/SVG/1.1/DTD/svg11.dtd">
<!-- Generated by graphviz version 2.36.0 (20140111.2315)
 -->
<!-- Title: g Pages: 1 -->
<svg width="180pt" height="192pt"
 viewBox="0.00 0.00 180.00 192.00" xmlns="http://www.w3.org/2000/svg" xmlns:xlink="http://www.w3.org/1999/xlink">
<g id="graph0" class="graph" transform="scale(1 1) rotate(0) translate(4 188)">
<title>g</title>
<polygon fill="white" stroke="none" points="-4,4 -4,-188 176,-188 176,4 -4,4"/>
<!-- hole -->
<g id="node1" class="node"><title>hole</title>
<polygon fill="none" stroke="black" points="144,-184 14,-184 14,-148 150,-148 150,-178 144,-184"/>
<polyline fill="none" stroke="black" points="144,-184 144,-178 "/>
<polyline fill="none" stroke="black" points="150,-178 144,-178 "/>
<text text-anchor="middle" x="82" y="-162.2" font-family="Times,serif" font-size="16.00">Note hole in frame</text>
</g>
<!-- z -->
<g id="node2" class="node"><title>z</title>
<polygon fill="none" stroke="black" points="-0.5,-75 -0.5,-111 172.5,-111 172.5,-75 -0.5,-75"/>
<text text-anchor="middle" x="13.5" y="-89.2" font-family="Times,serif" font-size="16.00">...</text>
<polyline fill="none" stroke="black" points="27.5,-75 27.5,-111 "/>
<text text-anchor="middle" x="40" y="-89.2" font-family="Times,serif" font-size="16.00">5</text>
<polyline fill="none" stroke="black" points="52.5,-75 52.5,-111 "/>
<text text-anchor="middle" x="82" y="-89.2" font-family="Times,serif" font-size="16.00">HOLE</text>
<polyline fill="none" stroke="black" points="111.5,-75 111.5,-111 "/>
<text text-anchor="middle" x="128" y="-89.2" font-family="Times,serif" font-size="16.00">10</text>
<polyline fill="none" stroke="black" points="144.5,-75 144.5,-111 "/>
<text text-anchor="middle" x="158.5" y="-89.2" font-family="Times,serif" font-size="16.00">...</text>
</g>
<!-- hole&#45;&gt;z -->
<g id="edge1" class="edge"><title>hole&#45;&gt;z:p1</title>
<path fill="none" stroke="grey" d="M82,-147.814C82,-140.278 82,-131.101 82,-122.058"/>
<polygon fill="grey" stroke="grey" points="85.5001,-122 82,-112 78.5001,-122 85.5001,-122"/>
</g>
<!-- b -->
<g id="node3" class="node"><title>b</title>
<polygon fill="none" stroke="black" points="32,-1 32,-37 132,-37 132,-1 32,-1"/>
<text text-anchor="middle" x="44.5" y="-15.2" font-family="Times,serif" font-size="16.00">5</text>
<polyline fill="none" stroke="black" points="57,-1 57,-37 "/>
<text text-anchor="middle" x="69.5" y="-15.2" font-family="Times,serif" font-size="16.00">6</text>
<polyline fill="none" stroke="black" points="82,-1 82,-37 "/>
<text text-anchor="middle" x="94.5" y="-15.2" font-family="Times,serif" font-size="16.00">7</text>
<polyline fill="none" stroke="black" points="107,-1 107,-37 "/>
<text text-anchor="middle" x="119.5" y="-15.2" font-family="Times,serif" font-size="16.00">8</text>
</g>
<!-- z&#45;&gt;b -->
<g id="edge2" class="edge"><title>z:p1&#45;&gt;b:n</title>
<path fill="none" stroke="black" d="M82,-74C82,-62 82,-56.75 82,-48.125"/>
<polygon fill="black" stroke="black" points="85.5001,-48 82,-38 78.5001,-48 85.5001,-48"/>
</g>
</g>
</svg>
